<?xml version="1.0" encoding="UTF-8" standalone="no"?>
<svg width="22px" height="27px" viewBox="0 0 22 27" version="1.1" xmlns="http://www.w3.org/2000/svg" xmlns:xlink="http://www.w3.org/1999/xlink" xmlns:sketch="http://www.bohemiancoding.com/sketch/ns">
    <!-- Generator: Sketch 3.3.3 (12081) - http://www.bohemiancoding.com/sketch -->
    <title>shapes</title>
    <desc>Created with Sketch.</desc>
    <defs></defs>
    <g id="do" stroke="none" stroke-width="1" fill="none" fill-rule="evenodd" sketch:type="MSPage">
        <g id="Tablet---Sign-Up" sketch:type="MSArtboardGroup" transform="translate(-245.500000, -535.000000)" stroke-width="2" stroke="#FFFFFF">
            <g id="password-copy-3" sketch:type="MSLayerGroup" transform="translate(129.000000, 524.000000)">
                <g id="birthday-copy" transform="translate(116.500000, 11.448000)" sketch:type="MSShapeGroup">
                    <g id="shapes">
                        <rect id="shape" stroke-linecap="round" x="0" y="10.0465116" width="22" height="16.3255814"></rect>
                        <path d="M11,11.8336315 L11,24.629172" id="line" stroke-linecap="square"></path>
                        <path d="M11.0888305,3.26583636 C11.4549094,1.39711101 12.9165337,0 14.6641,0 C16.68755,0 18.32765,1.8724186 18.32765,4.18248837 C18.32765,6.49318605 16.68755,8.36560465 14.6641,8.36560465 L14.6641,8.37251163 L10.99725,8.37251163 L10.99725,8.37188372 L7.51355,8.37188372 L7.51355,8.36497674 C5.49065,8.36560465 3.85,6.49255814 3.85,4.18248837 C3.85,1.87304651 5.4901,0 7.51355,0 C9.26070095,0 10.722711,1.39673809 11.0888305,3.26583636 Z" id="shape"></path>
                    </g>
                </g>
            </g>
        </g>
    </g>
</svg>