<?xml version="1.0" encoding="utf-8"?>
<!-- Generator: Adobe Illustrator 15.0.0, SVG Export Plug-In  -->
<!DOCTYPE svg PUBLIC "-//W3C//DTD SVG 1.1//EN" "http://www.w3.org/Graphics/SVG/1.1/DTD/svg11.dtd" [
	<!ENTITY ns_flows "http://ns.adobe.com/Flows/1.0/">
]>
<svg version="1.1"
	 xmlns="http://www.w3.org/2000/svg" xmlns:xlink="http://www.w3.org/1999/xlink" xmlns:a="http://ns.adobe.com/AdobeSVGViewerExtensions/3.0/"
	 x="0px" y="0px" width="201px" height="202px" viewBox="-0.5 -0.5 201 202" enable-background="new -0.5 -0.5 201 202"
	 xml:space="preserve">
<defs>
</defs>
<rect y="1" display="none" fill="#231F20" width="200.5" height="200.5"/>
<g>
	<defs>
		<path id="SVGID_20_" d="M155.883,109.476c0.089-0.103,0.138-0.164,0.138-0.164s-3.047-1.814-5.672-1.214
			c-0.836,0.192-1.792,0.771-2.591,1.348c1.052-1.39,2.025-2.856,2.904-4.395c0.833,0.221,2.705,0.563,4.98,0.01
			c2.479-0.602,3.941-3.362,3.941-3.362s-3.25-1.232-5.682-0.205c-0.762,0.323-1.574,1.024-2.242,1.71
			c0.781-1.555,1.462-3.176,2.032-4.855c0.82,0.073,2.713,0.101,4.85-0.837c2.29-1.003,3.228-3.917,3.228-3.917
			s-3.346-0.634-5.517,0.771c-0.701,0.454-1.383,1.307-1.919,2.103c0.567-1.786,0.991-3.592,1.286-5.401
			c0.815-0.072,2.627-0.375,4.515-1.631c2.039-1.356,2.45-4.328,2.45-4.328s-3.34-0.044-5.193,1.68
			c-0.612,0.569-1.131,1.531-1.516,2.402c0.217-1.899,0.298-3.794,0.251-5.667c0.725-0.184,2.498-0.768,4.173-2.366
			c1.738-1.656,1.63-4.594,1.63-4.594s-3.231,0.525-4.728,2.506c-0.558,0.738-0.919,1.939-1.135,2.92
			c-0.121-2.025-0.385-4.018-0.766-5.951c0.625-0.272,2.299-1.133,3.688-3.021c1.394-1.894,0.79-4.711,0.79-4.711
			s-3.028,1.057-4.135,3.223c-0.448,0.873-0.578,2.237-0.607,3.256c-0.474-2.084-1.084-4.088-1.809-5.98
			c0.565-0.377,2.02-1.493,3.032-3.535c1.024-2.066-0.038-4.682-0.038-4.682s-2.745,1.534-3.446,3.814
			c-0.275,0.896-0.182,2.189-0.042,3.17c-0.822-1.961-1.766-3.789-2.8-5.435c0.478-0.458,1.698-1.782,2.33-3.934
			c0.635-2.17-0.837-4.512-0.837-4.512s-2.385,1.948-2.673,4.267c-0.118,0.96,0.23,2.273,0.545,3.209
			c-0.377-0.557-0.764-1.091-1.16-1.598c-0.877-1.201-1.767-2.291-2.649-3.285c0.321-0.417,1.39-1.953,1.647-4.279
			c0.244-2.202-1.574-4.214-1.574-4.214s-1.971,2.286-1.853,4.574c0.053,1.085,0.783,2.513,1.263,3.347
			c-1.662-1.804-3.283-3.252-4.732-4.397c0.217-0.407,1.027-2.1,0.879-4.447c-0.139-2.165-2.237-3.797-2.237-3.797
			s-1.511,2.542-1.01,4.73c0.255,1.109,1.318,2.466,1.912,3.158c-1.002-0.768-1.909-1.384-2.676-1.871
			c-0.167-0.385-1.007-2.18-2.446-2.841c-1.149-0.525-3.382-0.291-3.382-0.291s0.617,1.581,2.399,2.779
			c1.192,0.802,2.812,0.563,3.308,0.466c0.923,0.622,2.059,1.444,3.318,2.497c-0.805-0.369-2.466-1.053-3.635-0.988
			c-2.239,0.125-4.264,2.284-4.264,2.284s2.151,1.561,4.27,1.091c2.266-0.5,3.656-1.72,4.012-2.063
			c1.406,1.206,2.948,2.697,4.512,4.515c-0.806-0.536-2.155-1.334-3.215-1.46c-2.273-0.271-4.689,1.539-4.689,1.539
			s1.886,1.95,4.097,1.854c2.244-0.096,3.815-0.983,4.328-1.316c0.687,0.829,1.375,1.716,2.052,2.676
			c0.616,0.813,1.21,1.689,1.773,2.62c-0.709-0.682-1.945-1.749-3.005-2.069c-2.237-0.677-4.986,0.716-4.986,0.716
			s1.549,2.293,3.792,2.589c2.293,0.304,4.04-0.325,4.595-0.562c1.001,1.741,1.902,3.656,2.668,5.704
			c-0.612-0.808-1.568-1.921-2.485-2.385c-2.126-1.077-5.134-0.164-5.134-0.164s1.149,2.58,3.347,3.273
			c2.155,0.682,3.954,0.414,4.631,0.269c0.645,1.862,1.179,3.822,1.578,5.849c-0.474-0.886-1.169-1.991-1.927-2.559
			c-1.948-1.459-5.132-1.073-5.132-1.073s0.697,2.794,2.785,3.88c1.961,1.025,3.75,1.112,4.517,1.094
			c0.323,1.957,0.519,3.969,0.571,6.006c-0.321-0.972-0.821-2.194-1.478-2.896c-1.698-1.811-4.967-1.988-4.967-1.988
			s0.207,2.933,2.11,4.395c1.792,1.377,3.574,1.783,4.347,1.9c-0.018,2.023-0.186,4.066-0.515,6.104
			c-0.146-1.048-0.434-2.425-0.989-3.274c-1.385-2.119-4.639-2.877-4.639-2.877s-0.312,2.981,1.343,4.789
			c1.565,1.713,3.297,2.435,4.045,2.683c-0.372,1.877-0.89,3.743-1.567,5.577c0.024-1.041-0.042-2.337-0.419-3.216
			c-1.016-2.378-4.151-3.714-4.151-3.714s-0.843,2.942,0.501,5.052c1.236,1.943,2.796,2.973,3.53,3.38
			c-0.667,1.757-1.463,3.441-2.364,5.044c0.206-1.039,0.364-2.335,0.142-3.277c-0.6-2.566-3.513-4.467-3.513-4.467
			s-1.368,2.809-0.392,5.164c0.886,2.145,2.247,3.449,2.922,4.002c-0.884,1.43-1.855,2.789-2.89,4.08H146.3
			c0.326-0.919,0.604-1.973,0.558-2.816c-0.149-2.687-2.738-5.111-2.738-5.111s-1.873,2.578-1.31,5.118
			c0.247,1.121,0.64,2.06,1.046,2.81h-1.696c-0.535-1.746-1.565-3.121-1.565-3.121s-1.359,1.317-1.953,3.121h-14.791
			c0.256-1.648,1.033-6.579,1.81-11.631c0.482-3.094,0.955-6.24,1.314-8.706c0.18-1.236,0.331-2.301,0.436-3.112
			c0.053-0.404,0.091-0.744,0.119-1.022c0.018-0.136,0.035-0.26,0.041-0.366c0.006-0.113,0.01-0.204,0.011-0.325
			c0.006-4.571-1.265-8.847-3.462-12.5l0.586-1.541H82.21l0.403,1.409c-2.242,3.683-3.539,8.007-3.539,12.632
			c0,0.121,0.008,0.212,0.016,0.325c0.035,0.413,0.114,1.063,0.235,1.957c0.421,3.105,1.314,8.961,2.103,14.055
			c0.619,3.983,1.173,7.488,1.384,8.826H68.275c-0.593-1.804-1.954-3.121-1.954-3.121s-1.031,1.374-1.566,3.121H63.06
			c0.406-0.749,0.8-1.688,1.046-2.81c0.563-2.54-1.309-5.118-1.309-5.118s-2.591,2.425-2.74,5.111
			c-0.046,0.844,0.232,1.897,0.559,2.816h-0.113c-1.036-1.291-2.006-2.65-2.89-4.08c0.675-0.553,2.036-1.857,2.922-4.002
			c0.976-2.355-0.392-5.164-0.392-5.164s-2.913,1.9-3.513,4.467c-0.222,0.942-0.063,2.238,0.142,3.277
			c-0.9-1.603-1.697-3.287-2.364-5.044c0.734-0.407,2.294-1.437,3.53-3.38c1.344-2.109,0.501-5.052,0.501-5.052
			s-3.135,1.336-4.15,3.714c-0.378,0.879-0.444,2.175-0.421,3.216c-0.677-1.834-1.194-3.7-1.566-5.577
			c0.748-0.248,2.479-0.97,4.045-2.683c1.654-1.808,1.343-4.789,1.343-4.789s-3.254,0.758-4.639,2.877
			c-0.555,0.85-0.842,2.227-0.988,3.274c-0.331-2.038-0.499-4.081-0.516-6.104c0.773-0.117,2.556-0.523,4.347-1.9
			c1.903-1.462,2.111-4.395,2.111-4.395s-3.27,0.178-4.967,1.988c-0.657,0.701-1.158,1.924-1.479,2.896
			c0.052-2.037,0.249-4.049,0.571-6.006c0.767,0.019,2.555-0.068,4.517-1.094c2.088-1.086,2.784-3.88,2.784-3.88
			s-3.183-0.386-5.132,1.073c-0.758,0.567-1.453,1.673-1.927,2.559c0.399-2.026,0.933-3.986,1.578-5.849
			c0.677,0.146,2.476,0.413,4.631-0.269c2.199-0.693,3.347-3.273,3.347-3.273s-3.006-0.913-5.134,0.164
			c-0.918,0.464-1.873,1.577-2.485,2.385c0.766-2.048,1.666-3.963,2.668-5.704c0.556,0.236,2.301,0.865,4.595,0.562
			c2.242-0.296,3.792-2.589,3.792-2.589s-2.749-1.393-4.986-0.716c-1.06,0.32-2.295,1.388-3.004,2.069
			c0.563-0.931,1.156-1.807,1.773-2.62c0.677-0.96,1.364-1.847,2.051-2.676c0.513,0.333,2.084,1.221,4.329,1.316
			c2.211,0.097,4.098-1.854,4.098-1.854s-2.417-1.811-4.69-1.539c-1.061,0.126-2.41,0.924-3.216,1.46
			c1.564-1.817,3.106-3.309,4.513-4.515c0.355,0.343,1.746,1.563,4.012,2.063c2.119,0.47,4.269-1.091,4.269-1.091
			s-2.024-2.159-4.263-2.284c-1.169-0.064-2.83,0.619-3.635,0.988c1.259-1.053,2.395-1.875,3.318-2.497
			c0.496,0.097,2.115,0.336,3.308-0.466c1.782-1.198,2.399-2.779,2.399-2.779s-2.232-0.234-3.382,0.291
			c-1.438,0.661-2.279,2.456-2.446,2.841c-0.767,0.487-1.673,1.104-2.675,1.871c0.593-0.692,1.656-2.049,1.911-3.158
			c0.502-2.188-1.01-4.73-1.01-4.73s-2.098,1.632-2.236,3.797c-0.149,2.348,0.662,4.04,0.878,4.447
			c-1.449,1.146-3.07,2.594-4.732,4.397c0.481-0.834,1.21-2.262,1.264-3.347c0.118-2.288-1.853-4.574-1.853-4.574
			s-1.818,2.012-1.574,4.214c0.258,2.326,1.326,3.862,1.647,4.279c-0.882,0.994-1.771,2.084-2.648,3.285
			c-0.396,0.507-0.783,1.041-1.161,1.598c0.315-0.936,0.664-2.249,0.545-3.209c-0.288-2.318-2.673-4.267-2.673-4.267
			s-1.473,2.342-0.836,4.512c0.631,2.151,1.851,3.476,2.329,3.934c-1.034,1.646-1.978,3.474-2.799,5.435
			c0.138-0.98,0.231-2.273-0.043-3.17c-0.702-2.28-3.446-3.814-3.446-3.814s-1.062,2.615-0.038,4.682
			c1.011,2.042,2.467,3.158,3.032,3.535c-0.724,1.893-1.335,3.896-1.809,5.98c-0.029-1.019-0.16-2.383-0.607-3.256
			c-1.107-2.166-4.136-3.223-4.136-3.223s-0.604,2.817,0.79,4.711c1.389,1.889,3.064,2.749,3.688,3.021
			c-0.381,1.934-0.645,3.926-0.765,5.951c-0.217-0.98-0.578-2.182-1.136-2.92c-1.497-1.98-4.727-2.506-4.727-2.506
			s-0.108,2.938,1.63,4.594c1.674,1.599,3.447,2.183,4.172,2.366c-0.046,1.873,0.035,3.768,0.251,5.667
			c-0.385-0.871-0.904-1.833-1.516-2.402c-1.854-1.724-5.193-1.68-5.193-1.68s0.412,2.972,2.45,4.328
			c1.887,1.256,3.7,1.559,4.515,1.631c0.294,1.81,0.719,3.615,1.285,5.401c-0.536-0.796-1.218-1.648-1.919-2.103
			c-2.17-1.404-5.517-0.771-5.517-0.771s0.939,2.914,3.229,3.917c2.137,0.938,4.029,0.91,4.849,0.837
			c0.569,1.68,1.251,3.301,2.032,4.855c-0.668-0.686-1.479-1.387-2.242-1.71c-2.431-1.027-5.682,0.205-5.682,0.205
			s1.461,2.761,3.94,3.362c2.276,0.553,4.147,0.211,4.981-0.01c0.879,1.538,1.853,3.005,2.904,4.395
			c-0.8-0.577-1.755-1.155-2.591-1.348c-2.625-0.601-5.672,1.214-5.672,1.214s0.048,0.062,0.137,0.164H39.892v2.203h127.132v-2.203
			H155.883z M122.667,94.354c-1.024,1.083-2.394,1.632-4.068,1.632h-0.001c-0.481,0-0.994-0.047-1.522-0.139
			c-4.792-0.828-9.695-5.916-9.369-9.723c0.253-2.955,3.774-4.581,9.911-4.581h0.117c4.817,0.019,6.707,3.406,6.86,6.302
			C124.742,90.534,124.039,92.907,122.667,94.354z M85.615,72.641l17.843,1.494l17.597-1.488c1.864,2.836,3.065,6.138,3.39,9.703
			c-1.407-1.556-3.55-2.616-6.531-2.627c-0.302-0.001-0.591,0.001-0.877,0.009H89.62c-0.284-0.008-0.578-0.01-0.871-0.009
			c-2.985,0.011-5.124,1.071-6.54,2.626C82.538,78.782,83.747,75.478,85.615,72.641z M82.059,87.845
			c0.158-2.895,2.051-6.283,6.865-6.302h0.117c6.138,0,9.658,1.627,9.911,4.582c0.327,3.806-4.577,8.895-9.37,9.722
			c-0.528,0.092-1.041,0.139-1.521,0.139l0,0c-1.674,0-3.042-0.549-4.067-1.631C82.62,92.907,81.915,90.535,82.059,87.845z
			 M85.75,108.544c-0.322-2.044-1.074-6.833-1.812-11.64c1.465,0.875,3.366,1.235,5.729,0.823
			c5.568-0.959,11.247-6.646,11.305-11.377c0.093-1.219,1.11-2.18,2.355-2.18c1.3,0,2.358,1.055,2.358,2.358h0.011
			c0.192,4.694,5.802,10.249,11.295,11.198c2.37,0.412,4.264,0.052,5.734-0.824c-0.312,2.028-0.634,4.063-0.917,5.881
			c-0.297,1.937-0.569,3.638-0.756,4.853c-0.147,0.944-0.253,1.598-0.292,1.839H85.895C85.872,109.323,85.823,109.003,85.75,108.544
			z"/>
	</defs>
	<use xlink:href="#SVGID_20_"  overflow="visible" fill="#FFFFFF"/>
	<clipPath id="SVGID_21_">
		<use xlink:href="#SVGID_20_"  overflow="visible"/>
	</clipPath>
	<polygon clip-path="url(#SVGID_21_)" fill="#FFFFFF" points="107.672,109.476 122.27,93.75 122.727,94.175 122.727,109.476 	"/>
	<polygon clip-path="url(#SVGID_21_)" fill="#FFFFFF" points="83.938,97.171 96.004,84.171 111.946,84.171 122.27,93.75 
		107.672,109.476 83.938,109.476 	"/>
	<polygon clip-path="url(#SVGID_21_)" fill="#FFFFFF" points="96.004,84.171 83.938,97.171 83.938,84.171 	"/>
	<polygon clip-path="url(#SVGID_21_)" fill="#FFFFFF" points="85.04,95.988 98.442,81.542 99.278,81.542 99.278,95.988 	"/>
	<polygon clip-path="url(#SVGID_21_)" fill="#FFFFFF" points="82.668,95.988 81.915,95.285 81.915,81.542 98.442,81.542 
		85.04,95.988 	"/>
	<polygon clip-path="url(#SVGID_21_)" fill="#FFFFFF" points="97.696,82.351 106.704,72.64 123.989,72.64 124.446,73.066 
		124.446,82.351 	"/>
	<polygon clip-path="url(#SVGID_21_)" fill="#FFFFFF" points="106.704,72.64 97.696,82.351 82.211,82.351 82.211,72.64 	"/>
	<polygon clip-path="url(#SVGID_21_)" fill="#FFFFFF" points="120.196,95.988 124.743,91.085 124.743,95.988 	"/>
	<polygon clip-path="url(#SVGID_21_)" fill="#FFFFFF" points="110.383,95.988 107.379,93.199 107.379,81.542 124.743,81.542 
		124.743,91.085 120.196,95.988 	"/>
	<polygon clip-path="url(#SVGID_21_)" fill="#FFFFFF" points="140.786,111.679 167.024,83.41 167.024,111.679 	"/>
	<polygon clip-path="url(#SVGID_21_)" fill="#FFFFFF" points="105.629,111.679 157.325,55.98 167.024,64.984 167.024,83.41 
		140.786,111.679 	"/>
	<polygon clip-path="url(#SVGID_21_)" fill="#FFFFFF" points="70.473,111.679 134.149,43.07 143.411,43.07 157.325,55.98 
		105.629,111.679 	"/>
	<polygon clip-path="url(#SVGID_21_)" fill="#FFFFFF" points="39.891,106.753 98.993,43.07 134.149,43.07 70.473,111.679 
		39.891,111.679 	"/>
	<polygon clip-path="url(#SVGID_21_)" fill="#FFFFFF" points="39.891,68.871 63.84,43.07 98.993,43.07 39.891,106.753 	"/>
	<polygon clip-path="url(#SVGID_21_)" fill="#FFFFFF" points="63.84,43.07 39.891,68.871 39.891,43.07 	"/>
</g>
<g>
	<defs>
		<path id="SVGID_18_" d="M114.114,69.256l4.993-19.342c-1.55-0.748-2.973-1.559-4.274-2.401l-3.593,21.743H114.114z"/>
	</defs>
	<use xlink:href="#SVGID_18_"  overflow="visible" fill="#FFFFFF"/>
	<clipPath id="SVGID_22_">
		<use xlink:href="#SVGID_18_"  overflow="visible"/>
	</clipPath>
	<polygon clip-path="url(#SVGID_22_)" fill="#FFFFFF" points="115.168,69.257 119.106,65.011 119.106,69.257 	"/>
	<polygon clip-path="url(#SVGID_22_)" fill="#FFFFFF" points="111.239,69.027 119.106,60.55 119.106,65.011 115.168,69.257 
		111.239,69.257 	"/>
	<polygon clip-path="url(#SVGID_22_)" fill="#FFFFFF" points="111.239,64.57 119.106,56.093 119.106,60.55 111.239,69.027 	"/>
	<polygon clip-path="url(#SVGID_22_)" fill="#FFFFFF" points="111.239,60.113 119.106,51.636 119.106,56.093 111.239,64.57 	"/>
	<polygon clip-path="url(#SVGID_22_)" fill="#FFFFFF" points="111.239,55.652 118.793,47.511 119.106,47.511 119.106,51.636 
		111.239,60.113 	"/>
	<polygon clip-path="url(#SVGID_22_)" fill="#FFFFFF" points="111.239,51.195 114.657,47.511 118.793,47.511 111.239,55.652 	"/>
	<polygon clip-path="url(#SVGID_22_)" fill="#FFFFFF" points="114.657,47.511 111.239,51.195 111.239,47.511 	"/>
</g>
<g>
	<defs>
		<path id="SVGID_16_" d="M119.839,69.256l5.075-17.073c-1.449-0.438-2.814-0.941-4.103-1.489l-4.792,18.563H119.839z"/>
	</defs>
	<use xlink:href="#SVGID_16_"  overflow="visible" fill="#FFFFFF"/>
	<clipPath id="SVGID_23_">
		<use xlink:href="#SVGID_16_"  overflow="visible"/>
	</clipPath>
	<polygon clip-path="url(#SVGID_23_)" fill="#FFFFFF" points="124.172,69.257 124.915,68.457 124.915,69.257 	"/>
	<polygon clip-path="url(#SVGID_23_)" fill="#FFFFFF" points="120.715,69.257 124.915,64.734 124.915,68.457 124.172,69.257 	"/>
	<polygon clip-path="url(#SVGID_23_)" fill="#FFFFFF" points="117.258,69.257 124.915,61.007 124.915,64.734 120.715,69.257 	"/>
	<polygon clip-path="url(#SVGID_23_)" fill="#FFFFFF" points="116.02,66.871 124.915,57.285 124.915,61.007 117.258,69.257 
		116.02,69.257 	"/>
	<polygon clip-path="url(#SVGID_23_)" fill="#FFFFFF" points="116.02,63.144 124.915,53.562 124.915,57.285 116.02,66.871 	"/>
	<polygon clip-path="url(#SVGID_23_)" fill="#FFFFFF" points="116.02,59.421 124.118,50.695 124.915,50.695 124.915,53.562 
		116.02,63.144 	"/>
	<polygon clip-path="url(#SVGID_23_)" fill="#FFFFFF" points="116.02,55.699 120.665,50.695 124.118,50.695 116.02,59.421 	"/>
	<polygon clip-path="url(#SVGID_23_)" fill="#FFFFFF" points="116.02,51.972 117.208,50.695 120.665,50.695 116.02,55.699 	"/>
	<polygon clip-path="url(#SVGID_23_)" fill="#FFFFFF" points="117.208,50.695 116.02,51.972 116.02,50.695 	"/>
</g>
<g>
	<defs>
		<path id="SVGID_14_" d="M109.371,69.256l3.782-22.892c-1.763-1.276-3.264-2.591-4.522-3.836l-2.009,26.728H109.371z"/>
	</defs>
	<use xlink:href="#SVGID_14_"  overflow="visible" fill="#FFFFFF"/>
	<clipPath id="SVGID_24_">
		<use xlink:href="#SVGID_14_"  overflow="visible"/>
	</clipPath>
	<polygon clip-path="url(#SVGID_24_)" fill="#FFFFFF" points="110.747,69.257 113.153,66.667 113.153,69.257 	"/>
	<polygon clip-path="url(#SVGID_24_)" fill="#FFFFFF" points="106.622,67.851 113.153,60.816 113.153,66.667 110.747,69.257 
		106.622,69.257 	"/>
	<polygon clip-path="url(#SVGID_24_)" fill="#FFFFFF" points="106.622,62 113.153,54.96 113.153,60.816 106.622,67.851 	"/>
	<polygon clip-path="url(#SVGID_24_)" fill="#FFFFFF" points="106.622,56.148 113.153,49.109 113.153,54.96 106.622,62 	"/>
	<polygon clip-path="url(#SVGID_24_)" fill="#FFFFFF" points="106.622,50.296 112.965,43.46 113.153,43.636 113.153,49.109 
		106.622,56.148 	"/>
	<polygon clip-path="url(#SVGID_24_)" fill="#FFFFFF" points="106.622,44.441 108.399,42.527 111.961,42.527 112.965,43.46 
		106.622,50.296 	"/>
	<polygon clip-path="url(#SVGID_24_)" fill="#FFFFFF" points="108.399,42.527 106.622,44.441 106.622,42.527 	"/>
</g>
<g>
	<defs>
		<path id="SVGID_12_" d="M126.76,52.876l-5.384,16.38l3.308-0.462l0.229-0.591c3.299,4.544,5.091,10.029,5.084,15.691
			c-0.001,0.126-0.005,0.218-0.009,0.319l-0.004,0.073c0,0.006,0,0.012,0,0.019c-0.008,0.139-0.024,0.27-0.042,0.397l-0.008,0.063
			c-0.032,0.301-0.071,0.657-0.127,1.087c-0.116,0.903-0.289,2.108-0.458,3.275c-0.415,2.851-0.916,6.175-1.375,9.122
			c-0.458,2.977-0.912,5.89-1.273,8.198c0.188,0.128,0.404,0.201,0.638,0.201h4.58c2.878,0,6.901-1.396,9.688-8.017
			c1.742-4.162,1.331-12.676-1.828-17.418c-1.475-2.23-3.418-3.402-5.609-3.402h-1.25c-0.787-3.961-2.399-7.783-4.672-11.125
			c0.416-0.844,0.295-1.867-0.285-2.602c-0.311-0.381-0.617-0.756-0.923-1.109c-0.014-0.012-0.021-0.021-0.023-0.026
			c-0.015-0.017-0.031-0.033-0.045-0.05l4.482-11.564C128.451,52.568,126.76,52.876,126.76,52.876z"/>
	</defs>
	<use xlink:href="#SVGID_12_"  overflow="visible" fill="#FFFFFF"/>
	<clipPath id="SVGID_25_">
		<use xlink:href="#SVGID_12_"  overflow="visible"/>
	</clipPath>
	<polygon clip-path="url(#SVGID_25_)" fill="#FFFFFF" points="138.891,106.652 143.348,101.847 143.348,106.652 	"/>
	<polygon clip-path="url(#SVGID_25_)" fill="#FFFFFF" points="126.375,106.652 143.348,88.363 143.348,101.847 138.891,106.652 	"/>
	<polygon clip-path="url(#SVGID_25_)" fill="#FFFFFF" points="123.973,106.652 121.375,104.238 121.375,98.554 143.348,74.878 
		143.348,88.363 126.375,106.652 	"/>
	<polygon clip-path="url(#SVGID_25_)" fill="#FFFFFF" points="121.375,85.066 143.348,61.394 143.348,74.878 121.375,98.554 	"/>
	<polygon clip-path="url(#SVGID_25_)" fill="#FFFFFF" points="121.375,71.582 137.493,54.218 143.348,59.652 143.348,61.394 
		121.375,85.066 	"/>
	<polygon clip-path="url(#SVGID_25_)" fill="#FFFFFF" points="121.375,58.097 127.653,51.339 134.391,51.339 137.493,54.218 
		121.375,71.582 	"/>
	<polygon clip-path="url(#SVGID_25_)" fill="#FFFFFF" points="127.653,51.339 121.375,58.097 121.375,51.339 	"/>
</g>
<g>
	<defs>
		<path id="SVGID_10_" d="M90.898,69.256l-4.792-18.563c-1.289,0.549-2.655,1.051-4.104,1.489l5.076,17.073H90.898z"/>
	</defs>
	<use xlink:href="#SVGID_10_"  overflow="visible" fill="#FFFFFF"/>
	<clipPath id="SVGID_26_">
		<use xlink:href="#SVGID_10_"  overflow="visible"/>
	</clipPath>
	<polygon clip-path="url(#SVGID_26_)" fill="#FFFFFF" points="86.973,69.257 90.899,65.027 90.899,69.257 	"/>
	<polygon clip-path="url(#SVGID_26_)" fill="#FFFFFF" points="84.141,69.257 82.836,68.046 90.899,59.359 90.899,65.027 
		86.973,69.257 	"/>
	<polygon clip-path="url(#SVGID_26_)" fill="#FFFFFF" points="82.836,68.046 82.004,67.273 82.004,63.273 90.899,53.691 
		90.899,59.359 	"/>
	<polygon clip-path="url(#SVGID_26_)" fill="#FFFFFF" points="82.004,57.605 88.418,50.695 89.047,50.695 90.899,52.41 
		90.899,53.691 82.004,63.273 	"/>
	<polygon clip-path="url(#SVGID_26_)" fill="#FFFFFF" points="82.004,51.941 83.161,50.695 88.418,50.695 82.004,57.605 	"/>
	<polygon clip-path="url(#SVGID_26_)" fill="#FFFFFF" points="83.161,50.695 82.004,51.941 82.004,50.695 	"/>
</g>
<g>
	<defs>
		<path id="SVGID_8_" d="M79.874,62.708c-0.073,0.081-0.15,0.16-0.222,0.242c-0.307,0.35-0.617,0.72-0.947,1.138
			c-0.587,0.732-0.7,1.752-0.295,2.603c-2.274,3.342-3.876,7.164-4.666,11.124H72.48c-2.193,0-4.133,1.173-5.616,3.402
			c-3.153,4.743-3.564,13.256-1.818,17.418c2.787,6.62,6.801,8.017,9.683,8.017h4.584c0.233,0,0.458-0.073,0.646-0.202
			c-0.239-1.524-0.521-3.33-0.821-5.262c-1.097-7.081-1.839-12.038-2.205-14.731c-0.139-1.033-0.217-1.684-0.253-2.112
			c0-0.01-0.001-0.02-0.002-0.03l-0.004-0.069c-0.007-0.097-0.014-0.208-0.014-0.35c0-5.76,1.853-11.336,5.254-15.924l0.319,0.824
			l3.307,0.462l-5.383-16.38c0,0-1.692-0.309-4.69-1.539L79.874,62.708z"/>
	</defs>
	<use xlink:href="#SVGID_8_"  overflow="visible" fill="#FFFFFF"/>
	<clipPath id="SVGID_27_">
		<use xlink:href="#SVGID_8_"  overflow="visible"/>
	</clipPath>
	<polygon clip-path="url(#SVGID_27_)" fill="#FFFFFF" points="82.774,106.652 85.54,103.667 85.54,106.652 	"/>
	<polygon clip-path="url(#SVGID_27_)" fill="#FFFFFF" points="70.942,106.652 85.54,90.921 85.54,103.667 82.774,106.652 	"/>
	<polygon clip-path="url(#SVGID_27_)" fill="#FFFFFF" points="66.399,106.652 63.301,103.777 63.301,102.14 85.54,78.175 
		85.54,90.921 70.942,106.652 	"/>
	<polygon clip-path="url(#SVGID_27_)" fill="#FFFFFF" points="63.301,89.394 85.54,65.429 85.54,78.175 63.301,102.14 	"/>
	<polygon clip-path="url(#SVGID_27_)" fill="#FFFFFF" points="63.301,76.644 84.313,54.003 85.54,55.144 85.54,65.429 
		63.301,89.394 	"/>
	<polygon clip-path="url(#SVGID_27_)" fill="#FFFFFF" points="63.301,63.898 74.958,51.339 81.438,51.339 84.313,54.003 
		63.301,76.644 	"/>
	<polygon clip-path="url(#SVGID_27_)" fill="#FFFFFF" points="74.958,51.339 63.301,63.898 63.301,51.339 	"/>
</g>
<g>
	<defs>
		<path id="SVGID_6_" d="M95.676,69.256l-3.592-21.743c-1.301,0.843-2.724,1.653-4.273,2.401l4.992,19.342H95.676z"/>
	</defs>
	<use xlink:href="#SVGID_6_"  overflow="visible" fill="#FFFFFF"/>
	<clipPath id="SVGID_28_">
		<use xlink:href="#SVGID_6_"  overflow="visible"/>
	</clipPath>
	<polygon clip-path="url(#SVGID_28_)" fill="#FFFFFF" points="91.579,69.257 95.676,64.843 95.676,69.257 	"/>
	<polygon clip-path="url(#SVGID_28_)" fill="#FFFFFF" points="89.864,69.257 87.836,67.375 95.676,58.929 95.676,64.843 
		91.579,69.257 	"/>
	<polygon clip-path="url(#SVGID_28_)" fill="#FFFFFF" points="87.836,67.375 87.809,67.351 87.809,61.488 95.676,53.015 
		95.676,58.929 	"/>
	<polygon clip-path="url(#SVGID_28_)" fill="#FFFFFF" points="87.809,55.574 95.168,47.648 95.676,48.117 95.676,53.015 
		87.809,61.488 	"/>
	<polygon clip-path="url(#SVGID_28_)" fill="#FFFFFF" points="87.809,49.66 89.805,47.511 95.024,47.511 95.168,47.648 
		87.809,55.574 	"/>
	<polygon clip-path="url(#SVGID_28_)" fill="#FFFFFF" points="89.805,47.511 87.809,49.66 87.809,47.511 	"/>
</g>
<g>
	<defs>
		<path id="SVGID_4_" d="M100.296,69.256l-2.011-26.726c-1.258,1.243-2.757,2.558-4.521,3.834l3.782,22.892H100.296z"/>
	</defs>
	<use xlink:href="#SVGID_4_"  overflow="visible" fill="#FFFFFF"/>
	<clipPath id="SVGID_29_">
		<use xlink:href="#SVGID_4_"  overflow="visible"/>
	</clipPath>
	<polygon clip-path="url(#SVGID_29_)" fill="#FFFFFF" points="95.887,69.257 100.297,64.507 100.297,69.257 	"/>
	<polygon clip-path="url(#SVGID_29_)" fill="#FFFFFF" points="94.606,69.257 93.766,68.476 93.766,65.183 100.297,58.144 
		100.297,64.507 95.887,69.257 	"/>
	<polygon clip-path="url(#SVGID_29_)" fill="#FFFFFF" points="93.766,58.816 100.297,51.781 100.297,58.144 93.766,65.183 	"/>
	<polygon clip-path="url(#SVGID_29_)" fill="#FFFFFF" points="93.766,52.453 100.297,45.417 100.297,51.781 93.766,58.816 	"/>
	<polygon clip-path="url(#SVGID_29_)" fill="#FFFFFF" points="93.766,46.089 97.067,42.531 100.297,42.531 100.297,45.417 
		93.766,52.453 	"/>
	<polygon clip-path="url(#SVGID_29_)" fill="#FFFFFF" points="97.067,42.531 93.766,46.089 93.766,42.531 	"/>
</g>
<g>
	<defs>
		<path id="SVGID_2_" d="M103.458,69.256h1.313l2.146-28.537c-2.369-2.675-3.458-4.685-3.458-4.685s-1.088,2.01-3.457,4.685
			l2.146,28.537H103.458z"/>
	</defs>
	<use xlink:href="#SVGID_2_"  overflow="visible" fill="#FFFFFF"/>
	<clipPath id="SVGID_30_">
		<use xlink:href="#SVGID_2_"  overflow="visible"/>
	</clipPath>
	<polygon clip-path="url(#SVGID_30_)" fill="#FFFFFF" points="106.504,69.257 106.918,68.812 106.918,69.257 	"/>
	<polygon clip-path="url(#SVGID_30_)" fill="#FFFFFF" points="100,68.898 106.918,61.449 106.918,68.812 106.504,69.257 100,69.257 
			"/>
	<polygon clip-path="url(#SVGID_30_)" fill="#FFFFFF" points="100,61.535 106.918,54.082 106.918,61.449 100,68.898 	"/>
	<polygon clip-path="url(#SVGID_30_)" fill="#FFFFFF" points="100,54.171 106.918,46.718 106.918,54.082 100,61.535 	"/>
	<polygon clip-path="url(#SVGID_30_)" fill="#FFFFFF" points="100,46.808 106.918,39.355 106.918,46.718 100,54.171 	"/>
	<polygon clip-path="url(#SVGID_30_)" fill="#FFFFFF" points="100,39.441 103.165,36.035 106.399,36.035 106.918,36.515 
		106.918,39.355 100,46.808 	"/>
	<polygon clip-path="url(#SVGID_30_)" fill="#FFFFFF" points="103.165,36.035 100,39.441 100,36.035 	"/>
</g>
<rect id="_x3C_Slice_x3E__9_" fill="none" width="201" height="203"/>
</svg>
