<?xml version="1.0" encoding="utf-8"?>
<!-- Generator: Adobe Illustrator 15.0.0, SVG Export Plug-In . SVG Version: 6.00 Build 0)  -->
<!DOCTYPE svg PUBLIC "-//W3C//DTD SVG 1.1//EN" "http://www.w3.org/Graphics/SVG/1.1/DTD/svg11.dtd">
<svg version="1.1" id="Layer_1" xmlns="http://www.w3.org/2000/svg" xmlns:xlink="http://www.w3.org/1999/xlink" x="0px" y="0px"
	 width="201px" height="203px" viewBox="0 0.012 201 203" enable-background="new 0 0.012 201 203" xml:space="preserve">
<rect x="0.5" display="none" fill="#231F20" width="200.5" height="200.5"/>
<path fill="#FFFFFF" d="M172.648,83.888c-0.078-1.167,0.668-2.172,0.436-3.086c-0.292-1.158-1.116-1.239-2.328-1.829
	c3.032-2.776,0.534-3.811-0.372-6.779c1.281-1.07,3.579-3.177,2.685-5.319c-0.359-0.857-1.914-1.201-2.969-1.864
	c-2.018-1.269-3.699-2.535-5.338-4.342c-0.048-2.3-0.389-4.628-1.062-6.935c-4.275-14.683-20.081-22.992-35.304-18.56
	c-15.223,4.433-24.097,19.929-19.818,34.612c1.761,6.049,5.488,11.007,10.316,14.445c5.155,9.32,8.44,23.724-3.291,32.77h30.295
	c2.313-6.71,5.043-14.131,5.638-15.658c0.717-1.844,2.5-5.188,4.263-5.896c1.307-0.524,3.21-1.147,4.92-1.302
	c5.604-0.514,11.657-1.074,12.568-5.177C173.838,86.804,172.751,85.374,172.648,83.888z"/>
<path fill="#FFFFFF" d="M145.943,34.69c0.031-0.079,0.063-0.158,0.094-0.238c0.5,0.037,1.055,0.166,1.5,0.038
	c1.693-0.48,3.337-2.247,5.846-0.844c0.178,0.099,0.323,0.295,0.559,0.373c0.304,0.099,0.744-0.017,1.164,0.101
	c0.711,0.199,1.311,0.559,1.767,0.957c0.247,0.215,0.618,0.508,0.567,0.842c-0.207-0.049-0.416-0.313-0.686-0.539
	c-0.807-0.672-2.021-1.182-3.036-0.786c-0.968,0.374-1.704,1.273-2.552,1.771c0.97,0.375,1.917,0.743,2.906,1.126
	c0.925,0.358,2.013,0.615,2.904,1.125c1.092,0.625,1.514,3.037,0.375,3.954c-0.375,0.3-1.115,0.37-1.656-0.138
	c-0.875-0.815-1.18-2.957,0.039-3.909c-3.236-1.253-6.469-2.505-9.701-3.757C145.984,34.747,145.938,34.732,145.943,34.69z
	 M153.456,34.063c-2.296-1.008-3.593,0.24-4.993,1.254C150.559,35.875,151.799,34.498,153.456,34.063z"/>
<path fill="#FFFFFF" d="M100.917,50.187c0.084,0.011,0.168,0.021,0.254,0.033c0.083,0.493,0.091,1.063,0.321,1.465
	c0.873,1.529,2.982,2.703,2.22,5.474c-0.054,0.196-0.208,0.385-0.229,0.631c-0.021,0.319,0.195,0.719,0.184,1.154
	c-0.021,0.738-0.229,1.407-0.506,1.944c-0.15,0.292-0.346,0.722-0.68,0.754c-0.002-0.212,0.205-0.479,0.358-0.796
	c0.459-0.943,0.663-2.245,0.036-3.135c-0.596-0.849-1.645-1.351-2.33-2.055c-0.133,1.033-0.263,2.04-0.397,3.092
	c-0.126,0.983-0.117,2.102-0.397,3.09c-0.345,1.21-2.587,2.195-3.75,1.31c-0.38-0.292-0.625-0.994-0.262-1.642
	c0.582-1.045,2.588-1.852,3.805-0.898c0.442-3.441,0.882-6.879,1.324-10.318C100.872,50.238,100.875,50.188,100.917,50.187z
	 M103.327,57.329c0.427-2.471-1.095-3.431-2.415-4.549C100.873,54.949,102.505,55.824,103.327,57.329z"/>
<path fill="#FFFFFF" d="M132.934,28.772c0.084,0.011,0.17,0.021,0.254,0.033c0.082,0.493,0.092,1.063,0.321,1.465
	c0.872,1.529,2.98,2.703,2.22,5.474c-0.055,0.196-0.209,0.385-0.229,0.631c-0.021,0.319,0.195,0.719,0.182,1.154
	c-0.021,0.738-0.228,1.407-0.504,1.944c-0.152,0.292-0.346,0.723-0.683,0.754c-0.001-0.213,0.206-0.479,0.358-0.795
	c0.459-0.943,0.664-2.245,0.037-3.136c-0.597-0.85-1.646-1.351-2.332-2.055c-0.129,1.033-0.261,2.04-0.396,3.092
	c-0.127,0.983-0.117,2.102-0.397,3.09c-0.345,1.209-2.586,2.195-3.75,1.31c-0.379-0.292-0.625-0.994-0.263-1.641
	c0.583-1.046,2.589-1.853,3.804-0.899c0.442-3.441,0.883-6.88,1.326-10.319C132.889,28.824,132.893,28.773,132.934,28.772z
	 M135.343,35.914c0.429-2.471-1.093-3.431-2.413-4.549C132.891,33.534,134.521,34.41,135.343,35.914z"/>
<path fill="#FFFFFF" d="M111.475,76.954c-0.074,0.038-0.148,0.078-0.228,0.116c-0.347-0.359-0.677-0.824-1.095-1.025
	c-1.586-0.764-3.988-0.536-4.932-3.25c-0.066-0.191-0.047-0.435-0.17-0.649c-0.162-0.276-0.568-0.48-0.804-0.848
	c-0.401-0.62-0.61-1.289-0.687-1.887c-0.043-0.326-0.125-0.792,0.133-1.008c0.125,0.173,0.104,0.511,0.156,0.858
	c0.157,1.038,0.728,2.226,1.748,2.604c0.973,0.361,2.12,0.181,3.084,0.371c-0.477-0.925-0.939-1.829-1.424-2.772
	c-0.453-0.881-1.097-1.795-1.427-2.771c-0.401-1.191,0.886-3.274,2.347-3.203c0.479,0.023,1.078,0.463,1.146,1.202
	c0.113,1.19-1.082,2.993-2.624,2.897c1.586,3.085,3.173,6.167,4.758,9.251C111.484,76.885,111.509,76.929,111.475,76.954z
	 M105.441,72.436c1.049,2.279,2.847,2.207,4.568,2.379C108.813,73.007,106.971,73.211,105.441,72.436z"/>
<path fill="#FFFFFF" d="M68.462,73.596c-0.062,0.116-0.123,0.234-0.188,0.352c-0.767-0.148-1.605-0.451-2.321-0.333
	c-2.715,0.436-5.59,2.875-9.229,0.24c-0.255-0.186-0.447-0.519-0.796-0.681c-0.453-0.21-1.158-0.111-1.788-0.369
	c-1.068-0.438-1.933-1.107-2.566-1.806c-0.345-0.382-0.868-0.904-0.73-1.413c0.312,0.114,0.59,0.563,0.968,0.962
	c1.127,1.191,2.92,2.203,4.567,1.775c1.57-0.404,2.881-1.662,4.286-2.28c-1.438-0.761-2.839-1.504-4.305-2.279
	c-1.369-0.725-3.012-1.323-4.303-2.278c-1.582-1.169-1.791-4.99,0.143-6.205c0.637-0.397,1.8-0.369,2.547,0.517
	c1.209,1.426,1.286,4.805-0.776,6.061c4.792,2.537,9.582,5.069,14.369,7.607C68.412,73.501,68.483,73.535,68.462,73.596z
	 M56.689,73.197c3.381,1.984,5.62,0.286,7.982-1.032C61.519,70.914,59.342,72.824,56.689,73.197z"/>
<path fill="#FFFFFF" d="M110.764,32.692c0.055-0.013,0.107-0.026,0.162-0.038c0.164,0.282,0.301,0.628,0.535,0.82
	c0.885,0.733,2.441,0.963,2.618,2.83c0.012,0.131-0.04,0.284,0.005,0.438c0.061,0.201,0.285,0.394,0.378,0.663
	c0.156,0.456,0.185,0.912,0.14,1.303c-0.023,0.213-0.045,0.521-0.242,0.618c-0.051-0.129,0.015-0.339,0.037-0.567
	c0.063-0.683-0.114-1.524-0.703-1.923c-0.559-0.382-1.314-0.446-1.896-0.717c0.158,0.661,0.313,1.306,0.471,1.979
	c0.149,0.629,0.416,1.31,0.471,1.978c0.07,0.818-1.071,1.937-1.986,1.664c-0.3-0.09-0.611-0.462-0.539-0.941
	c0.114-0.772,1.153-1.728,2.115-1.426c-0.523-2.203-1.049-4.403-1.571-6.605C110.748,32.734,110.738,32.702,110.764,32.692z
	 M113.882,36.498c-0.309-1.607-1.458-1.843-2.522-2.221C111.836,35.61,113.034,35.768,113.882,36.498z"/>
<path fill="#FFFFFF" d="M107.23,79.571c0.008,0.108,0.019,0.216,0.025,0.328c-0.598,0.234-1.311,0.395-1.753,0.791
	c-1.688,1.498-2.606,4.456-6.286,4.235c-0.259-0.016-0.539-0.162-0.852-0.121c-0.409,0.056-0.851,0.435-1.403,0.535
	c-0.932,0.166-1.826,0.084-2.573-0.121c-0.407-0.112-1.001-0.241-1.127-0.655c0.266-0.059,0.655,0.13,1.092,0.239
	c1.307,0.328,2.995,0.239,3.947-0.784c0.91-0.971,1.262-2.422,1.963-3.47c-1.332,0.108-2.63,0.211-3.986,0.32
	c-1.269,0.102-2.669,0.413-3.985,0.318c-1.611-0.112-3.44-2.664-2.636-4.36c0.266-0.555,1.082-1.047,1.99-0.763
	c1.467,0.455,3.01,2.76,2.135,4.54c4.437-0.355,8.87-0.713,13.307-1.066C107.154,79.527,107.219,79.519,107.23,79.571z M98.9,84.483
	c3.215-0.115,4.019-2.279,5.075-4.232C101.24,80.775,100.573,83.055,98.9,84.483z"/>
<path fill="#FFFFFF" d="M105.064,48.059c0.028,0.07,0.058,0.143,0.084,0.219c-0.36,0.282-0.817,0.539-1.039,0.901
	c-0.853,1.374-0.875,3.589-3.443,4.19c-0.181,0.043-0.403,0-0.61,0.092c-0.268,0.121-0.494,0.472-0.85,0.654
	c-0.605,0.304-1.235,0.432-1.79,0.444c-0.302,0.007-0.735,0.038-0.907-0.217c0.17-0.097,0.477-0.046,0.798-0.061
	c0.963-0.043,2.102-0.45,2.547-1.346c0.424-0.853,0.369-1.918,0.635-2.781c-0.892,0.347-1.761,0.683-2.668,1.036
	c-0.849,0.33-1.745,0.829-2.666,1.035c-1.128,0.252-2.906-1.124-2.701-2.451c0.069-0.434,0.528-0.939,1.208-0.931
	c1.099,0.011,2.628,1.276,2.392,2.675c2.97-1.152,5.938-2.304,8.906-3.454C105.003,48.042,105.047,48.024,105.064,48.059z
	 M100.359,53.131c2.182-0.737,2.29-2.385,2.612-3.941C101.205,50.109,101.214,51.811,100.359,53.131z"/>
<path fill="#FFFFFF" d="M50.896,53.64c0.062-0.081,0.124-0.162,0.19-0.243c0.561,0.217,1.158,0.558,1.716,0.563
	c2.12,0.033,4.631-1.434,7.037,1.05c0.171,0.174,0.272,0.454,0.515,0.623c0.317,0.221,0.864,0.24,1.309,0.519
	c0.75,0.476,1.32,1.099,1.707,1.716c0.209,0.334,0.539,0.8,0.366,1.167c-0.223-0.128-0.373-0.505-0.606-0.858
	c-0.698-1.054-1.924-2.063-3.231-1.959c-1.246,0.098-2.409,0.878-3.56,1.161c0.992,0.769,1.957,1.521,2.965,2.305
	c0.941,0.734,2.109,1.406,2.963,2.303c1.044,1.1,0.694,4.028-0.938,4.693c-0.535,0.215-1.414,0.039-1.862-0.734
	c-0.729-1.244-0.336-3.819,1.398-4.496c-3.299-2.565-6.596-5.127-9.893-7.694C50.923,53.72,50.872,53.683,50.896,53.64z
	 M59.78,55.517c-2.301-1.959-4.228-0.97-6.197-0.284C55.809,56.602,57.717,55.444,59.78,55.517z"/>
<path fill="#FFFFFF" d="M105.135,39.62c0.076-0.019,0.153-0.038,0.233-0.055c0.235,0.406,0.433,0.903,0.769,1.179
	c1.271,1.055,3.512,1.386,3.764,4.071c0.02,0.189-0.057,0.407,0.008,0.629c0.085,0.289,0.408,0.567,0.543,0.953
	c0.225,0.655,0.265,1.311,0.199,1.874c-0.034,0.306-0.062,0.75-0.346,0.888c-0.074-0.186,0.021-0.488,0.051-0.817
	c0.09-0.981-0.164-2.191-1.008-2.765c-0.805-0.549-1.891-0.641-2.729-1.031c0.228,0.95,0.446,1.878,0.678,2.846
	c0.216,0.905,0.597,1.883,0.677,2.844c0.1,1.177-1.543,2.786-2.857,2.394c-0.43-0.13-0.877-0.665-0.774-1.354
	c0.166-1.111,1.659-2.484,3.042-2.05c-0.754-3.168-1.507-6.333-2.259-9.5C105.109,39.68,105.098,39.634,105.135,39.62z
	 M109.617,45.091c-0.442-2.312-2.096-2.65-3.627-3.194C106.676,43.815,108.398,44.042,109.617,45.091z"/>
<path fill="#FFFFFF" d="M146.585,26.687c0.069,0.021,0.138,0.041,0.207,0.063c-0.001,0.42-0.076,0.893,0.06,1.257
	c0.504,1.389,2.084,2.658,1.065,4.843c-0.071,0.154-0.228,0.289-0.278,0.489c-0.063,0.261,0.06,0.622-0.012,0.981
	c-0.122,0.607-0.387,1.132-0.693,1.537c-0.164,0.22-0.385,0.55-0.668,0.529c0.027-0.177,0.237-0.368,0.409-0.608
	c0.513-0.716,0.863-1.765,0.472-2.589c-0.373-0.787-1.17-1.35-1.641-2.029c-0.255,0.836-0.504,1.651-0.764,2.503
	c-0.243,0.795-0.391,1.723-0.762,2.501c-0.457,0.952-2.451,1.453-3.289,0.556c-0.272-0.295-0.375-0.91,0.016-1.395
	c0.627-0.784,2.4-1.168,3.273-0.208c0.852-2.786,1.699-5.569,2.549-8.353C146.542,26.723,146.552,26.681,146.585,26.687z
	 M147.575,32.937c0.7-1.985-0.423-2.993-1.358-4.105C145.879,30.622,147.107,31.576,147.575,32.937z"/>
<path fill="#FFFFFF" d="M22.287,63.242c0.047-0.054,0.095-0.108,0.145-0.161c0.385,0.176,0.786,0.442,1.175,0.472
	c1.484,0.124,3.308-0.789,4.879,1.063c0.111,0.13,0.168,0.33,0.331,0.46c0.211,0.17,0.594,0.207,0.893,0.423
	c0.503,0.368,0.873,0.831,1.114,1.279c0.133,0.245,0.342,0.587,0.202,0.834c-0.15-0.099-0.236-0.369-0.384-0.628
	c-0.438-0.771-1.25-1.534-2.17-1.521c-0.877,0.01-1.726,0.503-2.546,0.646c0.659,0.585,1.299,1.157,1.969,1.752
	c0.626,0.557,1.413,1.082,1.966,1.751c0.68,0.817,0.3,2.851-0.873,3.241c-0.385,0.125-0.992-0.039-1.271-0.6
	c-0.452-0.904-0.057-2.689,1.188-3.083c-2.19-1.951-4.38-3.897-6.568-5.846C22.301,63.298,22.268,63.271,22.287,63.242z
	 M28.42,64.967c-1.52-1.477-2.917-0.875-4.327-0.485C25.589,65.544,26.978,64.822,28.42,64.967z"/>
<path fill="#FFFFFF" d="M88.403,49.643c0.142-0.036,0.284-0.07,0.432-0.102c0.437,0.749,0.798,1.667,1.417,2.174
	c2.347,1.945,6.479,2.558,6.944,7.509c0.034,0.349-0.104,0.751,0.014,1.162c0.158,0.532,0.755,1.045,1.002,1.758
	c0.414,1.208,0.49,2.418,0.37,3.458c-0.065,0.563-0.115,1.383-0.64,1.638c-0.136-0.343,0.037-0.901,0.093-1.507
	c0.167-1.81-0.301-4.042-1.861-5.102c-1.482-1.013-3.488-1.183-5.031-1.902c0.418,1.754,0.824,3.465,1.248,5.251
	c0.397,1.669,1.101,3.474,1.249,5.248c0.183,2.169-2.844,5.137-5.271,4.414c-0.794-0.24-1.62-1.227-1.428-2.498
	c0.303-2.049,3.059-4.583,5.612-3.781c-1.39-5.845-2.781-11.683-4.167-17.525C88.361,49.754,88.337,49.669,88.403,49.643z
	 M96.675,59.738c-0.818-4.265-3.869-4.89-6.694-5.893C91.246,57.383,94.425,57.801,96.675,59.738z"/>
<path fill="#FFFFFF" d="M81.718,80.364c0.028-0.064,0.057-0.13,0.088-0.195c0.416,0.055,0.875,0.188,1.252,0.101
	c1.438-0.323,2.895-1.724,4.928-0.435c0.144,0.09,0.255,0.262,0.449,0.338c0.25,0.097,0.623,0.02,0.968,0.138
	c0.585,0.199,1.072,0.528,1.434,0.881c0.195,0.191,0.494,0.454,0.437,0.729c-0.171-0.05-0.334-0.28-0.549-0.481
	c-0.643-0.599-1.635-1.082-2.502-0.796c-0.825,0.266-1.484,0.984-2.216,1.361c0.794,0.359,1.569,0.71,2.379,1.075
	c0.756,0.342,1.654,0.607,2.377,1.075c0.884,0.573,1.125,2.61,0.129,3.324c-0.327,0.234-0.95,0.257-1.378-0.191
	c-0.694-0.722-0.849-2.527,0.213-3.267c-2.646-1.197-5.292-2.392-7.938-3.59C81.748,80.414,81.708,80.397,81.718,80.364z
	 M88.028,80.186c-1.875-0.949-3.017,0.034-4.235,0.816C85.521,81.567,86.621,80.474,88.028,80.186z"/>
<path fill="#FFFFFF" d="M113.466,82.072c0.042,0.027,0.082,0.053,0.125,0.082c-0.081,0.283-0.221,0.586-0.2,0.857
	c0.072,1.032,0.889,2.19-0.218,3.463c-0.077,0.09-0.208,0.15-0.28,0.275c-0.094,0.163-0.08,0.43-0.197,0.657
	c-0.199,0.385-0.479,0.688-0.762,0.902c-0.154,0.117-0.367,0.294-0.553,0.225c0.053-0.113,0.229-0.201,0.391-0.329
	c0.485-0.383,0.924-1.021,0.817-1.651c-0.099-0.601-0.526-1.133-0.712-1.68c-0.33,0.513-0.656,1.013-0.996,1.536
	c-0.314,0.49-0.594,1.084-0.994,1.536c-0.49,0.553-1.928,0.504-2.318-0.26c-0.127-0.252-0.077-0.685,0.277-0.936
	c0.574-0.406,1.844-0.324,2.243,0.491c1.109-1.709,2.216-3.418,3.324-5.126C113.428,82.087,113.443,82.062,113.466,82.072z
	 M112.925,86.466c0.854-1.2,0.293-2.095-0.123-3.023C112.232,84.582,112.873,85.46,112.925,86.466z"/>
<path fill="#FFFFFF" d="M122.422,30.743c0.042,0.027,0.084,0.054,0.126,0.083c-0.081,0.282-0.222,0.586-0.202,0.857
	c0.074,1.031,0.893,2.189-0.215,3.462c-0.078,0.091-0.209,0.15-0.281,0.276c-0.095,0.164-0.08,0.43-0.197,0.657
	c-0.198,0.385-0.479,0.688-0.762,0.901c-0.154,0.117-0.367,0.295-0.552,0.226c0.054-0.113,0.229-0.202,0.392-0.33
	c0.483-0.383,0.92-1.02,0.816-1.651c-0.099-0.601-0.527-1.134-0.712-1.681c-0.333,0.513-0.655,1.014-0.995,1.536
	c-0.316,0.489-0.596,1.083-0.996,1.536c-0.49,0.553-1.927,0.505-2.318-0.26c-0.127-0.251-0.078-0.685,0.279-0.936
	c0.573-0.405,1.84-0.322,2.241,0.491c1.108-1.709,2.216-3.418,3.326-5.126C122.385,30.758,122.398,30.732,122.422,30.743z
	 M121.882,35.137c0.854-1.2,0.293-2.094-0.122-3.023C121.188,33.253,121.831,34.131,121.882,35.137z"/>
<path fill="#FFFFFF" d="M69.285,74.263c0.074,0.08,0.147,0.161,0.223,0.242c-1.721,1.589-3.575,3.3-5.4,4.986
	c-0.836,0.772-1.631,1.723-2.414,1.742c-0.741,0.019-1.898-0.435-2.527-1.326c-0.226-0.321-0.395-0.946-0.138-1.295
	c0.828-1.122,3.512,0.008,3.871,1.506c2.1-1.939,4.199-3.878,6.298-5.817C69.229,74.271,69.257,74.242,69.285,74.263z"/>
<path fill="#FFFFFF" d="M129.339,67.875c-0.077,0.24-0.155,0.482-0.233,0.728c-5.164-1.668-10.724-3.464-16.198-5.231
	c-2.511-0.808-5.33-1.334-6.259-2.89c-0.881-1.473-1.279-4.326-0.197-6.605c0.391-0.823,1.46-1.875,2.457-1.752
	c3.205,0.394,3.973,7.097,1.359,9.524c6.299,2.033,12.599,4.066,18.898,6.097C129.259,67.774,129.352,67.799,129.339,67.875z"/>
<path fill="#FFFFFF" d="M128.797,64.102c-0.191,0.164-0.385,0.326-0.579,0.495c-3.522-4.128-7.313-8.573-11.048-12.95
	c-1.713-2.004-3.839-3.931-3.813-5.743c0.023-1.715,1.179-4.354,3.297-5.728c0.765-0.495,2.227-0.831,3.01-0.203
	c2.521,2.017-0.339,8.127-3.838,8.822c4.297,5.035,8.594,10.07,12.892,15.103C128.783,63.971,128.848,64.04,128.797,64.102z"/>
<path fill="#FFFFFF" d="M114.754,80.215c0.107,0,0.215,0,0.322,0c0,2.3,0,4.775,0,7.213c0,1.118,0.156,2.323-0.352,2.9
	c-0.479,0.547-1.578,1.078-2.64,0.938c-0.381-0.051-0.944-0.344-1.026-0.762c-0.259-1.343,2.346-2.526,3.666-1.788
	c0-2.805,0-5.607,0-8.412C114.725,80.261,114.721,80.22,114.754,80.215z"/>
<path fill="#FFFFFF" d="M93.801,75.417c0.065,0,0.131,0,0.196,0c0,1.403,0,2.912,0,4.399c0,0.683,0.095,1.417-0.214,1.769
	c-0.292,0.334-0.963,0.658-1.61,0.573c-0.233-0.032-0.577-0.211-0.625-0.465c-0.158-0.82,1.43-1.542,2.235-1.091
	c0-1.71,0-3.421,0-5.131C93.781,75.445,93.781,75.42,93.801,75.417z"/>
<path fill="#FFFFFF" d="M69.26,63.519c-0.027-0.113-0.056-0.226-0.083-0.339c2.416-0.583,5.014-1.209,7.574-1.827
	c1.174-0.284,2.399-0.752,3.134-0.365c0.697,0.365,1.534,1.385,1.655,2.531c0.042,0.414-0.122,1.082-0.54,1.27
	c-1.347,0.613-3.247-1.822-2.808-3.394c-2.944,0.711-5.888,1.422-8.833,2.132C69.316,63.541,69.272,63.552,69.26,63.519z"/>
<path fill="#FFFFFF" d="M82.272,64.251c0.157,0.026,0.315,0.052,0.474,0.08c-0.568,3.366-1.182,6.99-1.786,10.557
	c-0.276,1.637-0.347,3.44-1.231,4.16c-0.838,0.681-2.578,1.188-4.095,0.722c-0.547-0.168-1.299-0.738-1.313-1.371
	c-0.048-2.031,4.057-3.117,5.807-1.711c0.693-4.104,1.386-8.209,2.081-12.315C82.215,64.311,82.222,64.251,82.272,64.251z"/>
<path fill="#FFFFFF" d="M113.113,38.188c0.115,0.02,0.234,0.039,0.351,0.059c-0.421,2.493-0.875,5.179-1.321,7.821
	c-0.205,1.213-0.259,2.549-0.914,3.082c-0.621,0.505-1.908,0.881-3.033,0.535c-0.404-0.125-0.963-0.547-0.973-1.016
	c-0.035-1.504,3.006-2.31,4.303-1.268c0.514-3.04,1.026-6.082,1.541-9.123C113.07,38.231,113.076,38.187,113.113,38.188z"/>
<path fill="#FFFFFF" d="M131.744,78.525c0.105,0.119,0.212,0.239,0.316,0.359c-2.559,2.258-5.313,4.691-8.025,7.084
	c-1.246,1.099-2.436,2.457-3.574,2.458c-1.081,0.002-2.752-0.697-3.638-2.014c-0.32-0.475-0.546-1.391-0.159-1.891
	c1.24-1.607,5.115,0.128,5.591,2.322c3.12-2.754,6.241-5.509,9.363-8.265C131.664,78.535,131.706,78.494,131.744,78.525z"/>
<path fill="#FFFFFF" d="M107.863,82.242c0.063,0.07,0.125,0.138,0.187,0.208c-1.489,1.313-3.089,2.729-4.667,4.118
	c-0.724,0.64-1.415,1.429-2.078,1.431c-0.628,0-1.6-0.406-2.115-1.171c-0.186-0.274-0.316-0.81-0.093-1.098
	c0.722-0.936,2.975,0.072,3.25,1.351c1.813-1.604,3.629-3.206,5.441-4.806C107.816,82.248,107.842,82.223,107.863,82.242z"/>
<path fill="#FFFFFF" d="M106.191,59.464c0.063,0.071,0.123,0.14,0.187,0.209c-1.487,1.313-3.09,2.728-4.667,4.119
	c-0.725,0.637-1.415,1.428-2.078,1.429c-0.628,0-1.6-0.405-2.114-1.17c-0.186-0.276-0.317-0.81-0.093-1.1
	c0.72-0.936,2.973,0.072,3.25,1.349c1.813-1.601,3.629-3.203,5.443-4.805C106.145,59.47,106.17,59.447,106.191,59.464z"/>
<path fill="#FFFFFF" d="M83.663,71.583c-0.14-0.023-0.278-0.041-0.416-0.062c0.437-2.956,0.905-6.14,1.369-9.272
	c0.212-1.438,0.24-3.018,1.001-3.663c0.724-0.61,2.236-1.087,3.57-0.707c0.48,0.138,1.151,0.622,1.176,1.175
	c0.077,1.776-3.494,2.803-5.052,1.604c-0.531,3.606-1.064,7.211-1.596,10.817C83.712,71.53,83.704,71.58,83.663,71.583z"/>
<path fill="#FFFFFF" d="M124.707,90.147c-0.07,0.24-0.477,0.737-0.754,1.122c-0.525,0.729-1.034,1.434-1.583,2.191
	c-0.276,0.383-0.522,0.834-0.795,1.063c-0.397,0.333-1.28,0.232-1.796-0.26c-0.18-0.172-0.33-0.445-0.239-0.662
	c0.308-0.746,1.886-0.424,2.237,0.323c0.806-1.115,1.609-2.228,2.416-3.343c-1.373-0.737-2.732-1.414-4.1-2.125
	c-0.721,1-1.377,1.907-2.127,2.945c-0.232,0.325-0.441,0.73-0.699,0.932c-0.396,0.308-1.317,0.181-1.801-0.293
	c-0.205-0.2-0.322-0.505-0.188-0.739c0.385-0.655,1.8-0.324,2.203,0.412c0.929-1.283,1.855-2.568,2.783-3.852
	C121.749,88.639,123.229,89.403,124.707,90.147z"/>
<path fill="#FFFFFF" d="M126.542,37.891c0.194,0.562,0.108,2.074,0.108,3.198c0,2.128,0,4.188,0,6.399
	c0,1.116,0.152,2.327-0.055,3.145c-0.302,1.19-2.138,2.217-3.807,1.987c-0.586-0.081-1.251-0.395-1.379-0.937
	c-0.442-1.858,3.029-3.431,4.744-2.482c0-3.255,0-6.509,0-9.765c-3.652,0.485-7.2,1.074-10.813,1.601c0,2.918,0,5.569,0,8.605
	c0,0.942,0.162,2.012-0.055,2.759c-0.331,1.136-2.277,2.171-3.862,1.929c-0.668-0.101-1.317-0.523-1.379-1.158
	c-0.174-1.787,3.002-3.117,4.798-2.263c0-3.75,0-7.502,0-11.252C118.771,39.094,122.674,38.51,126.542,37.891z"/>
<path fill="#FFFFFF" d="M115.857,89.569c0.131-0.334,0.767-0.994,1.209-1.511c0.838-0.978,1.648-1.923,2.518-2.936
	c0.438-0.513,0.846-1.128,1.264-1.423c0.605-0.428,1.852-0.176,2.529,0.587c0.236,0.268,0.417,0.673,0.264,0.973
	c-0.529,1.026-2.742,0.383-3.154-0.728c-1.281,1.493-2.562,2.987-3.844,4.481c1.869,1.215,3.729,2.341,5.594,3.519
	c1.146-1.339,2.189-2.554,3.386-3.948c0.371-0.432,0.718-0.987,1.11-1.244c0.601-0.391,1.9-0.1,2.533,0.634
	c0.268,0.309,0.397,0.757,0.176,1.075c-0.625,0.887-2.605,0.249-3.092-0.85c-1.477,1.72-2.953,3.442-4.43,5.162
	C119.896,92.076,117.876,90.807,115.857,89.569z"/>
<path fill="#FFFFFF" d="M96.382,65.895c0.15,0.431,0.083,1.59,0.083,2.452c0,1.633,0,3.212,0,4.908c0,0.856,0.118,1.785-0.042,2.411
	c-0.23,0.913-1.638,1.701-2.919,1.524c-0.449-0.062-0.959-0.303-1.058-0.72c-0.34-1.424,2.325-2.631,3.638-1.903
	c0-2.497,0-4.991,0-7.488c-2.801,0.371-5.521,0.823-8.292,1.227c0,2.237,0,4.271,0,6.6c0,0.722,0.124,1.542-0.042,2.115
	c-0.254,0.872-1.747,1.665-2.961,1.479c-0.514-0.077-1.011-0.401-1.058-0.887c-0.133-1.371,2.302-2.391,3.681-1.735
	c0-2.875,0-5.753,0-8.629C90.423,66.817,93.416,66.369,96.382,65.895z"/>
<path fill="#FFFFFF" d="M144.279,33.363c-0.188,0.128-0.756,0.25-1.172,0.364c-0.787,0.215-1.547,0.424-2.365,0.647
	c-0.414,0.113-0.846,0.292-1.17,0.298c-0.469,0.009-1.035-0.565-1.119-1.207c-0.03-0.224,0.018-0.502,0.207-0.604
	c0.642-0.352,1.574,0.773,1.396,1.503c1.205-0.33,2.409-0.659,3.612-0.988c-0.549-1.302-1.125-2.555-1.687-3.837
	c-1.078,0.296-2.06,0.564-3.183,0.871c-0.348,0.095-0.726,0.263-1.026,0.259c-0.453-0.008-1.032-0.623-1.104-1.234
	c-0.031-0.257,0.061-0.54,0.288-0.627c0.644-0.245,1.458,0.795,1.323,1.546c1.386-0.38,2.775-0.759,4.16-1.139
	C143.048,30.61,143.66,31.995,144.279,33.363z"/>
<path fill="#FFFFFF" d="M87.522,66.632c-0.471,0.323-1.891,0.625-2.928,0.911c-1.968,0.537-3.873,1.061-5.917,1.618
	c-1.032,0.284-2.11,0.731-2.92,0.745c-1.177,0.021-2.589-1.415-2.799-3.017c-0.073-0.562,0.048-1.256,0.518-1.511
	c1.605-0.88,3.938,1.934,3.493,3.758c3.011-0.823,6.019-1.647,9.028-2.471c-1.371-3.253-2.813-6.385-4.212-9.591
	c-2.699,0.74-5.149,1.41-7.955,2.179c-0.873,0.236-1.819,0.657-2.566,0.646c-1.134-0.019-2.583-1.556-2.761-3.083
	c-0.075-0.644,0.151-1.349,0.723-1.567c1.607-0.613,3.642,1.986,3.305,3.863c3.467-0.948,6.936-1.897,10.402-2.848
	C84.444,59.753,85.972,63.215,87.522,66.632z"/>
<path fill="#FFFFFF" d="M52.716,66.056c-0.055,0.289-0.459,0.913-0.732,1.394c-0.519,0.908-1.02,1.788-1.558,2.732
	c-0.272,0.478-0.501,1.03-0.79,1.329c-0.418,0.437-1.453,0.426-2.109-0.08c-0.23-0.176-0.438-0.472-0.36-0.736
	c0.263-0.901,2.129-0.728,2.629,0.096c0.793-1.39,1.586-2.778,2.379-4.169c-1.678-0.682-3.336-1.296-5.006-1.95
	c-0.711,1.246-1.355,2.378-2.095,3.674c-0.23,0.404-0.422,0.899-0.695,1.165c-0.418,0.404-1.501,0.374-2.12-0.117
	c-0.259-0.206-0.435-0.543-0.307-0.83c0.361-0.806,2.042-0.601,2.602,0.202c0.912-1.601,1.826-3.203,2.739-4.805
	C49.104,64.68,50.914,65.38,52.716,66.056z"/>
<path fill="#FFFFFF" d="M102.075,81.051c0.171-0.336,0.901-0.962,1.415-1.454c0.974-0.933,1.917-1.838,2.927-2.808
	c0.511-0.491,0.998-1.09,1.462-1.354c0.678-0.384,1.952,0.004,2.579,0.87c0.22,0.303,0.368,0.744,0.176,1.042
	c-0.655,1.018-2.897,0.119-3.215-1.082c-1.487,1.429-2.979,2.856-4.468,4.285c1.824,1.458,3.65,2.824,5.475,4.244
	c1.336-1.282,2.547-2.445,3.938-3.777c0.433-0.413,0.85-0.956,1.287-1.186c0.666-0.347,1.994,0.09,2.578,0.922
	c0.246,0.35,0.336,0.83,0.074,1.138c-0.74,0.863-2.742-0.005-3.141-1.203c-1.714,1.645-3.432,3.293-5.146,4.938
	C106.035,84.075,104.053,82.546,102.075,81.051z"/>
<path fill="#FFFFFF" d="M63.734,68.997c0.11-0.215,0.578-0.617,0.909-0.934c0.626-0.602,1.231-1.183,1.882-1.807
	c0.328-0.315,0.641-0.7,0.94-0.87c0.435-0.247,1.255,0.002,1.659,0.56c0.142,0.194,0.236,0.479,0.113,0.669
	c-0.421,0.654-1.864,0.076-2.067-0.696c-0.957,0.919-1.916,1.836-2.874,2.755c1.174,0.937,2.348,1.815,3.521,2.729
	c0.858-0.824,1.637-1.571,2.531-2.428c0.277-0.265,0.545-0.615,0.826-0.762c0.428-0.224,1.282,0.057,1.657,0.592
	c0.16,0.226,0.219,0.535,0.049,0.732c-0.477,0.555-1.764-0.004-2.02-0.773c-1.103,1.058-2.207,2.116-3.309,3.174
	C66.279,70.943,65.005,69.958,63.734,68.997z"/>
<path fill="#FFFFFF" d="M73.172,80.209c0.181-0.012,0.618,0.133,0.949,0.223c0.627,0.171,1.234,0.335,1.884,0.511
	c0.328,0.089,0.696,0.141,0.921,0.267c0.326,0.186,0.48,0.806,0.278,1.279c-0.069,0.166-0.214,0.337-0.385,0.331
	c-0.583-0.018-0.768-1.166-0.351-1.593c-0.958-0.259-1.916-0.521-2.874-0.781c-0.149,1.114-0.259,2.206-0.393,3.31
	c0.858,0.233,1.638,0.444,2.532,0.687c0.276,0.076,0.604,0.113,0.808,0.237c0.308,0.188,0.458,0.844,0.259,1.291
	c-0.084,0.188-0.259,0.346-0.45,0.313c-0.54-0.091-0.678-1.133-0.283-1.593c-1.104-0.298-2.209-0.599-3.312-0.898
	C72.906,82.592,73.046,81.396,73.172,80.209z"/>
<path fill="#FFFFFF" d="M109.124,46.509c0.108-0.216,0.579-0.618,0.908-0.935c0.626-0.6,1.233-1.182,1.882-1.806
	c0.33-0.315,0.643-0.701,0.939-0.87c0.438-0.247,1.256,0.003,1.66,0.56c0.141,0.195,0.236,0.479,0.113,0.67
	c-0.422,0.654-1.863,0.076-2.066-0.695c-0.959,0.919-1.916,1.835-2.873,2.754c1.172,0.938,2.346,1.815,3.519,2.728
	c0.86-0.823,1.637-1.57,2.53-2.428c0.277-0.265,0.548-0.614,0.828-0.762c0.429-0.223,1.283,0.058,1.658,0.592
	c0.157,0.225,0.217,0.535,0.049,0.732c-0.478,0.555-1.767-0.003-2.021-0.773c-1.104,1.059-2.207,2.117-3.31,3.175
	C111.669,48.455,110.396,47.471,109.124,46.509z"/>
<path fill="#FFFFFF" d="M119.887,92.048c0.026,0.044,0.053,0.089,0.077,0.132c-0.315,0.333-0.655,0.578-0.838,0.936
	c-0.504,0.972-0.31,2.171-1.673,2.844c-0.473,0.234-1.088,0.348-1.553,0.378c-0.143,0.007-0.364,0.042-0.441-0.095
	c0.078-0.103,0.225-0.068,0.339-0.08c0.481-0.055,1.077-0.109,1.667-0.536c0.773-0.559,0.965-1.454,0.691-2.298
	c-0.57,0.283-1.271,0.717-1.992,1.14c-0.689,0.404-1.378,0.909-1.979,1.161c-0.511,0.214-1.318-0.081-1.685-0.55
	c-0.351-0.451-0.457-1.05,0.142-1.323c0.75-0.343,1.934,0.371,2,1.34c1.722-1.01,3.443-2.02,5.166-3.031
	C119.838,92.045,119.869,92.026,119.887,92.048z"/>
<path fill="#FFFFFF" d="M66.449,58.729c0.053-0.005,0.104-0.013,0.152-0.018c0.18,0.421,0.27,0.831,0.524,1.142
	c0.693,0.85,1.87,1.148,1.945,2.668c0.025,0.525-0.114,1.137-0.273,1.573c-0.05,0.132-0.105,0.351-0.261,0.368
	c-0.063-0.112,0.027-0.232,0.062-0.341c0.142-0.465,0.33-1.033,0.171-1.744c-0.206-0.932-0.95-1.462-1.833-1.549
	c0.032,0.636,0.151,1.452,0.253,2.282c0.096,0.794,0.285,1.626,0.277,2.278c-0.007,0.554-0.598,1.178-1.176,1.327
	c-0.552,0.141-1.145,0-1.156-0.659c-0.018-0.823,1.108-1.625,2.024-1.299c-0.242-1.982-0.484-3.965-0.723-5.946
	C66.426,58.773,66.423,58.737,66.449,58.729z"/>
<path fill="#FFFFFF" d="M88.807,56.072c0.052-0.005,0.104-0.013,0.152-0.018c0.181,0.421,0.271,0.831,0.526,1.141
	c0.692,0.85,1.869,1.148,1.945,2.668c0.024,0.525-0.114,1.137-0.273,1.572c-0.05,0.133-0.107,0.352-0.262,0.369
	c-0.064-0.112,0.026-0.233,0.062-0.342c0.14-0.464,0.328-1.033,0.171-1.744c-0.207-0.932-0.951-1.462-1.833-1.549
	c0.031,0.636,0.15,1.452,0.252,2.282c0.098,0.795,0.286,1.627,0.278,2.278c-0.007,0.554-0.599,1.177-1.177,1.327
	c-0.551,0.14-1.144,0-1.155-0.659c-0.017-0.823,1.108-1.626,2.023-1.301c-0.24-1.981-0.483-3.964-0.723-5.945
	C88.785,56.116,88.78,56.081,88.807,56.072z"/>
<path fill="#FFFFFF" d="M105.363,81.302c0.052-0.005,0.104-0.013,0.152-0.018c0.178,0.421,0.27,0.831,0.523,1.142
	c0.693,0.85,1.87,1.148,1.945,2.668c0.024,0.525-0.114,1.137-0.273,1.573c-0.05,0.132-0.105,0.351-0.262,0.368
	c-0.063-0.112,0.027-0.232,0.063-0.341c0.141-0.465,0.328-1.033,0.17-1.744c-0.205-0.932-0.949-1.462-1.832-1.549
	c0.031,0.636,0.15,1.452,0.252,2.282c0.096,0.794,0.285,1.626,0.277,2.278c-0.007,0.554-0.598,1.178-1.176,1.327
	c-0.553,0.141-1.145,0-1.156-0.659c-0.018-0.823,1.107-1.625,2.023-1.299c-0.241-1.982-0.484-3.965-0.723-5.946
	C105.341,81.346,105.337,81.31,105.363,81.302z"/>
<path fill="#FFFFFF" d="M114.863,71.085c0.098-0.01,0.191-0.025,0.281-0.033c0.33,0.774,0.496,1.528,0.965,2.097
	c1.272,1.563,3.437,2.111,3.574,4.905c0.047,0.965-0.209,2.089-0.502,2.892c-0.092,0.243-0.195,0.645-0.479,0.675
	c-0.117-0.206,0.05-0.427,0.112-0.628c0.261-0.854,0.605-1.898,0.315-3.205c-0.378-1.714-1.746-2.688-3.369-2.849
	c0.058,1.17,0.277,2.669,0.466,4.194c0.176,1.46,0.523,2.989,0.508,4.188c-0.012,1.018-1.099,2.165-2.162,2.438
	c-1.014,0.258-2.104,0-2.125-1.21c-0.031-1.512,2.039-2.988,3.721-2.389c-0.443-3.643-0.889-7.289-1.329-10.931
	C114.824,71.166,114.816,71.1,114.863,71.085z"/>
<path fill="#FFFFFF" d="M123.502,81.969c0.098-0.01,0.191-0.025,0.281-0.033c0.328,0.774,0.496,1.528,0.964,2.097
	c1.272,1.563,3.437,2.111,3.575,4.905c0.046,0.965-0.211,2.089-0.504,2.892c-0.09,0.243-0.194,0.645-0.479,0.675
	c-0.116-0.206,0.05-0.427,0.113-0.628c0.26-0.854,0.604-1.898,0.315-3.205c-0.379-1.714-1.748-2.688-3.369-2.849
	c0.058,1.17,0.276,2.669,0.465,4.194c0.177,1.46,0.523,2.989,0.509,4.188c-0.013,1.018-1.099,2.165-2.162,2.438
	c-1.015,0.258-2.104,0-2.125-1.21c-0.032-1.512,2.038-2.988,3.72-2.389c-0.443-3.643-0.889-7.289-1.328-10.931
	C123.462,82.05,123.455,81.983,123.502,81.969z"/>
<path fill="#FFFFFF" d="M95.739,47.724c-0.013-0.05-0.026-0.1-0.04-0.147c0.395-0.235,0.789-0.378,1.061-0.673
	c0.749-0.8,0.887-2.007,2.383-2.285c0.518-0.096,1.141-0.039,1.597,0.059c0.138,0.032,0.361,0.058,0.398,0.21
	c-0.103,0.078-0.234,0.004-0.348-0.015c-0.478-0.078-1.066-0.188-1.75,0.064c-0.895,0.328-1.322,1.137-1.289,2.023
	c0.625-0.117,1.418-0.345,2.227-0.556c0.774-0.202,1.573-0.501,2.22-0.581c0.549-0.068,1.249,0.435,1.472,0.987
	c0.214,0.528,0.154,1.134-0.496,1.234c-0.813,0.127-1.759-0.88-1.56-1.831c-1.931,0.504-3.863,1.011-5.796,1.515
	C95.786,47.74,95.75,47.75,95.739,47.724z"/>
<path fill="#FFFFFF" d="M104.857,49.542c0.069,0,0.139,0,0.207,0c0.17,0.594,0.226,1.155,0.513,1.609
	c0.786,1.245,2.307,1.834,2.161,3.874c-0.051,0.707-0.334,1.497-0.617,2.056c-0.087,0.17-0.201,0.45-0.412,0.446
	c-0.066-0.159,0.074-0.303,0.139-0.446c0.264-0.596,0.606-1.323,0.514-2.296c-0.125-1.276-1.032-2.106-2.194-2.365
	c-0.062,0.854-0.033,1.961-0.033,3.085c0,1.073,0.117,2.215,0,3.084c-0.101,0.737-0.989,1.472-1.782,1.576
	c-0.761,0.1-1.528-0.183-1.44-1.063c0.112-1.102,1.746-1.989,2.914-1.405c0-2.684,0-5.368,0-8.052
	C104.82,49.596,104.818,49.547,104.857,49.542z"/>
<path fill="#FFFFFF" d="M72.06,70.03c0.067,0,0.135,0,0.204,0c0.168,0.587,0.221,1.141,0.507,1.59
	c0.777,1.229,2.278,1.811,2.134,3.826c-0.05,0.698-0.33,1.479-0.61,2.031c-0.085,0.167-0.197,0.446-0.406,0.44
	c-0.065-0.157,0.074-0.3,0.137-0.44c0.261-0.59,0.6-1.307,0.507-2.269c-0.123-1.261-1.019-2.081-2.168-2.336
	c-0.06,0.843-0.032,1.937-0.032,3.047c0,1.061,0.115,2.189,0,3.047c-0.099,0.728-0.979,1.454-1.761,1.558
	c-0.751,0.099-1.51-0.182-1.422-1.05c0.111-1.088,1.723-1.965,2.878-1.389c0-2.651,0-5.303,0-7.954
	C72.024,70.083,72.021,70.037,72.06,70.03z"/>
<path fill="#FFFFFF" d="M86.634,65.899c0.056,0.038,0.114,0.076,0.17,0.112c-0.181,0.583-0.438,1.076-0.446,1.608
	c-0.023,1.454,0.912,2.762-0.312,4.369c-0.424,0.557-1.088,1.057-1.623,1.365c-0.164,0.092-0.409,0.265-0.581,0.146
	c0.031-0.167,0.226-0.21,0.354-0.293c0.542-0.35,1.217-0.766,1.667-1.621c0.589-1.121,0.288-2.298-0.533-3.141
	c-0.514,0.672-1.089,1.603-1.698,2.531c-0.58,0.887-1.104,1.894-1.668,2.549c-0.481,0.555-1.616,0.68-2.328,0.338
	c-0.681-0.33-1.162-0.979-0.615-1.658c0.69-0.849,2.52-0.7,3.17,0.417c1.453-2.219,2.906-4.437,4.358-6.656
	C86.574,65.924,86.599,65.884,86.634,65.899z"/>
<path fill="#FFFFFF" d="M106.958,60.928c0.106,0.07,0.216,0.142,0.321,0.212c-0.34,1.098-0.827,2.027-0.842,3.033
	c-0.045,2.742,1.722,5.211-0.588,8.242c-0.799,1.051-2.051,1.994-3.06,2.577c-0.312,0.176-0.772,0.499-1.099,0.275
	c0.059-0.316,0.428-0.397,0.67-0.555c1.021-0.66,2.299-1.442,3.146-3.055c1.111-2.116,0.543-4.337-1.006-5.928
	c-0.967,1.27-2.053,3.025-3.202,4.777c-1.094,1.672-2.081,3.571-3.148,4.807c-0.908,1.047-3.048,1.284-4.39,0.637
	c-1.288-0.621-2.194-1.845-1.159-3.125c1.3-1.603,4.752-1.32,5.979,0.783c2.739-4.184,5.479-8.368,8.22-12.553
	C106.846,60.975,106.891,60.897,106.958,60.928z"/>
<path fill="#FFFFFF" d="M102.945,57.573c-0.079-0.063-0.156-0.127-0.232-0.191c0.359-0.82,0.816-1.498,0.914-2.274
	c0.273-2.118-0.88-4.181,1.171-6.326c0.709-0.744,1.759-1.364,2.589-1.726c0.258-0.109,0.643-0.32,0.875-0.119
	c-0.072,0.24-0.365,0.271-0.568,0.372c-0.846,0.422-1.901,0.917-2.697,2.092c-1.044,1.54-0.796,3.307,0.264,4.672
	c0.858-0.898,1.85-2.162,2.891-3.418c0.992-1.199,1.92-2.582,2.854-3.445c0.793-0.732,2.469-0.729,3.453-0.112
	c0.941,0.591,1.536,1.618,0.624,2.519c-1.144,1.126-3.79,0.609-4.558-1.125c-2.481,2.999-4.965,5.999-7.448,8.998
	C103.036,57.546,102.993,57.602,102.945,57.573z"/>
<path fill="#FFFFFF" d="M116.525,43.419c-0.077-0.064-0.155-0.128-0.23-0.191c0.359-0.82,0.816-1.498,0.915-2.274
	c0.272-2.118-0.879-4.181,1.17-6.326c0.71-0.744,1.761-1.364,2.591-1.727c0.256-0.109,0.643-0.319,0.873-0.118
	c-0.072,0.24-0.363,0.271-0.566,0.372c-0.848,0.422-1.901,0.916-2.698,2.091c-1.044,1.541-0.796,3.308,0.265,4.672
	c0.857-0.897,1.85-2.162,2.889-3.417c0.994-1.199,1.922-2.583,2.854-3.446c0.793-0.731,2.47-0.729,3.453-0.111
	c0.94,0.591,1.536,1.618,0.625,2.519c-1.146,1.126-3.792,0.609-4.558-1.125c-2.482,2.999-4.965,5.998-7.449,8.999
	C116.616,43.393,116.575,43.448,116.525,43.419z"/>
<path fill="#FFFFFF" d="M96.837,71.996c0.082-0.019,0.163-0.039,0.244-0.06c0.366,0.653,0.589,1.301,1.058,1.756
	c1.279,1.245,3.236,1.511,3.64,3.959c0.141,0.849,0.025,1.862-0.149,2.599c-0.055,0.227-0.108,0.589-0.358,0.643
	c-0.125-0.169,0.002-0.379,0.035-0.566c0.146-0.778,0.346-1.731-0.041-2.854c-0.503-1.472-1.809-2.193-3.254-2.171
	c0.168,1.025,0.515,2.322,0.832,3.65c0.302,1.264,0.759,2.58,0.868,3.637c0.09,0.896-0.754,2.015-1.661,2.363
	c-0.869,0.332-1.854,0.214-1.996-0.848c-0.178-1.332,1.498-2.84,3.041-2.48c-0.756-3.166-1.512-6.332-2.268-9.498
	C96.809,72.07,96.792,72.014,96.837,71.996z"/>
<path fill="#FFFFFF" d="M36.512,48.479c0.119-0.029,0.236-0.057,0.353-0.085c0.533,0.945,0.858,1.885,1.539,2.546
	c1.854,1.807,4.694,2.194,5.281,5.747c0.202,1.231,0.038,2.7-0.217,3.77c-0.08,0.33-0.158,0.855-0.522,0.934
	c-0.178-0.246,0.005-0.55,0.052-0.822c0.209-1.128,0.5-2.512-0.058-4.14c-0.732-2.135-2.626-3.185-4.724-3.15
	c0.245,1.486,0.747,3.37,1.207,5.296c0.439,1.834,1.102,3.743,1.262,5.277c0.128,1.303-1.096,2.925-2.411,3.429
	c-1.262,0.479-2.689,0.311-2.897-1.231c-0.258-1.93,2.172-4.12,4.413-3.598c-1.097-4.595-2.193-9.189-3.291-13.783
	C36.47,48.586,36.447,48.505,36.512,48.479z"/>
<path fill="#FFFFFF" d="M97.997,55.72c0.074-0.036,0.146-0.072,0.219-0.107c1.58,0.343,3.979,2.743,5.033,4.714
	c1.776,3.318,1.2,7.274,0.593,9.477c0.666,0.983,1.416,1.715,2.051,2.79c3.278-1.617,5.672-0.634,7.5,2.008
	c0.143,0.291,0.287,0.582,0.432,0.873c0.719,2.308,0.113,4.163-1.072,5.82c2.42,2.819,5.727,7.49,1.951,9.757
	c-0.473,0.233-0.946,0.466-1.418,0.699c-1.62,0.242-3.494,0.068-4.344-1.661c-0.521-1.057-0.381-2.599,0.564-3.264
	c2.417-1.701,5.305,2.236,2.262,3.771c2.1,0.896,4.108-1.358,3.832-3.241c-0.313-2.146-2.517-3.628-3.451-5.359
	c-4.578,3.43-8.853,1.707-11.583-2.033c-0.269-0.545-0.538-1.093-0.806-1.638c-0.632-2.069-0.454-3.85-0.074-5.663
	c0.209-0.994,1.517-4.294,1.232-5.218c-0.17-0.548-0.901-1.202-1.296-1.805C97.464,62.33,96.228,58.437,97.997,55.72z
	 M101.996,60.264c-0.321-0.856-1.084-1.938-1.676-1.752c-2.604,0.818-0.737,6.049,0.983,8.063
	C102.189,65.05,102.791,62.373,101.996,60.264z M102.523,80.087c1.601,3.066,5.578,3.982,9.028,1.253
	c-1.487-2.039-3-4.007-4.536-5.908c-1.059,1.145-1.461,3.019-0.189,4.299c0.74,0.743,1.736,0.248,2.498,0.94
	c-3.807,1.991-7.104-5.154-3.928-7.427c-0.686-0.833-1.287-1.913-2.051-2.518C102.561,73.388,100.698,76.582,102.523,80.087z
	 M112.266,80.581c2.127-2.518-1.19-7.662-4.591-5.745C109.217,76.715,110.658,78.894,112.266,80.581z"/>
<rect id="_x3C_Slice_x3E__9_" y="0.012" fill="none" width="201" height="203"/>
</svg>
