<?xml version="1.0" encoding="utf-8"?>
<!-- Generator: Adobe Illustrator 15.0.0, SVG Export Plug-In  -->
<!DOCTYPE svg PUBLIC "-//W3C//DTD SVG 1.1//EN" "http://www.w3.org/Graphics/SVG/1.1/DTD/svg11.dtd" [
	<!ENTITY ns_flows "http://ns.adobe.com/Flows/1.0/">
]>
<svg version="1.1"
	 xmlns="http://www.w3.org/2000/svg" xmlns:xlink="http://www.w3.org/1999/xlink" xmlns:a="http://ns.adobe.com/AdobeSVGViewerExtensions/3.0/"
	 x="0px" y="0px" width="201px" height="203px" viewBox="0 0 201 203" enable-background="new 0 0 201 203" xml:space="preserve">
<defs>
</defs>
<rect x="0.477" y="2.5" display="none" fill="#231F20" width="200.5" height="200.5"/>
<path fill-rule="evenodd" clip-rule="evenodd" fill="#FFFFFF" d="M85.957,132.353c-2.229-3.054-3.715-6.847-4.732-10.364
	c-0.046-0.153-0.012-0.413,0.072-0.617c5.263-12.199,7.391-18.413,12.872-31.172c0.737-1.729-0.631-4.411-1.737-6.342
	c-0.106-0.418,0-0.699,0.351-0.836l7.486-3.12l0.358-41.777h-0.112v-0.917l-1.369-0.668c-0.347-0.184-0.486-0.433-0.218-0.831
	c0.324-0.551,0.603-1.142,0.391-1.636c-0.118-0.276-0.229-0.545-0.335-0.806l-0.547,0.143c0.039,0.275,0.027,0.54,0.073,0.841
	c0,0.031,0,0.056,0,0.082c0,0.01-0.012,0.061-0.012,0.076c-0.005,0.062-0.056,0.112-0.123,0.128l-0.721,0.188
	c-0.073,0.016-0.145-0.005-0.185-0.056c-0.006-0.01-0.05-0.056-0.061-0.077c-0.011-0.015-0.023-0.03-0.034-0.051
	c-0.19-0.372-0.408-0.642-0.531-1.035c-0.124-0.403-0.09-0.724-0.14-1.142c-0.011-0.077,0.028-0.178,0.128-0.204l0.777-0.204
	c0.101-0.026,0.201,0.031,0.229,0.117c0.173,0.326,0.357,0.576,0.48,0.897l0.498-0.127c-0.375-0.979-0.665-1.85-0.911-2.676
	l-0.414,0.107c0.039,0.28,0.028,0.545,0.073,0.846c0.006,0.031,0.006,0.056,0,0.077c0,0.015-0.006,0.066-0.006,0.082
	c-0.011,0.056-0.061,0.112-0.128,0.127l-0.715,0.189c-0.072,0.015-0.145-0.01-0.19-0.056c-0.006-0.01-0.044-0.062-0.055-0.077
	c-0.018-0.015-0.028-0.036-0.034-0.051c-0.195-0.377-0.414-0.642-0.536-1.035c-0.118-0.403-0.084-0.729-0.14-1.142
	c-0.011-0.077,0.028-0.184,0.129-0.209l0.776-0.199c0.101-0.025,0.202,0.026,0.229,0.117c0.173,0.327,0.357,0.571,0.486,0.897
	l0.397-0.102c-0.274-0.928-0.503-1.805-0.776-2.722l-0.498,0.127c0.039,0.28,0.027,0.545,0.073,0.841c0,0.036,0,0.061,0,0.082
	c-0.006,0.015-0.012,0.061-0.012,0.077c-0.006,0.061-0.056,0.117-0.123,0.132l-0.721,0.183c-0.067,0.021-0.145-0.005-0.184-0.056
	c-0.012-0.011-0.045-0.056-0.062-0.071c-0.011-0.021-0.027-0.036-0.033-0.056c-0.195-0.372-0.413-0.638-0.531-1.035
	c-0.123-0.398-0.09-0.724-0.146-1.137c-0.005-0.076,0.034-0.184,0.134-0.209l0.777-0.199c0.095-0.025,0.201,0.025,0.229,0.112
	c0.168,0.332,0.357,0.576,0.48,0.903l0.486-0.127c-0.324-1.05-0.709-2.167-1.273-3.477c-0.067-0.163-0.067-0.296-0.022-0.403
	c0.357-1.101,0.843-1.642,1.575-2.498c0.234-0.28,0.441-0.214,0.581,0.026c1.212,1.881,2.861,4.593,5.486,4.776
	c2.62-0.184,4.269-2.896,5.48-4.776c0.14-0.24,0.346-0.306,0.587-0.026c0.726,0.856,1.212,1.397,1.57,2.498
	c0.044,0.107,0.044,0.24-0.022,0.403c-0.565,1.315-0.956,2.437-1.273,3.492l0.436,0.112c0.124-0.327,0.307-0.571,0.48-0.903
	c0.028-0.086,0.128-0.137,0.229-0.112l0.776,0.199c0.101,0.025,0.14,0.133,0.128,0.209c-0.05,0.413-0.017,0.739-0.139,1.137
	c-0.123,0.397-0.341,0.663-0.531,1.035c-0.005,0.02-0.022,0.036-0.033,0.056c-0.012,0.015-0.056,0.061-0.062,0.071
	c-0.044,0.051-0.117,0.076-0.185,0.056l-0.721-0.183c-0.067-0.015-0.118-0.071-0.123-0.132c0-0.016-0.012-0.062-0.012-0.077
	c0-0.021,0-0.046,0-0.082c0.045-0.296,0.034-0.561,0.073-0.841l-0.452-0.117c-0.269,0.917-0.503,1.799-0.772,2.722L109,29.839
	c0.128-0.326,0.312-0.571,0.48-0.897c0.028-0.091,0.134-0.143,0.235-0.117l0.775,0.199c0.095,0.026,0.14,0.133,0.129,0.209
	c-0.056,0.413-0.018,0.739-0.14,1.142c-0.123,0.393-0.341,0.658-0.53,1.035c-0.012,0.016-0.022,0.036-0.034,0.051
	c-0.017,0.015-0.056,0.066-0.067,0.077c-0.039,0.046-0.112,0.071-0.184,0.056l-0.721-0.189c-0.067-0.015-0.112-0.071-0.124-0.127
	c0-0.015-0.005-0.066-0.005-0.082c-0.006-0.021-0.006-0.046-0.006-0.077c0.044-0.3,0.034-0.565,0.079-0.846l-0.363-0.092
	c-0.252,0.826-0.537,1.697-0.917,2.676l0.453,0.112c0.123-0.321,0.307-0.571,0.48-0.897c0.028-0.086,0.128-0.143,0.229-0.117
	l0.777,0.204c0.101,0.026,0.14,0.127,0.129,0.204c-0.051,0.418-0.018,0.739-0.141,1.142c-0.123,0.393-0.34,0.663-0.53,1.035
	c-0.012,0.021-0.018,0.036-0.034,0.051c-0.017,0.021-0.056,0.066-0.061,0.077c-0.046,0.051-0.118,0.072-0.185,0.056l-0.721-0.188
	c-0.066-0.016-0.117-0.066-0.123-0.128c0-0.015-0.006-0.066-0.011-0.076c0-0.026,0-0.051,0-0.082
	c0.044-0.301,0.033-0.566,0.072-0.841l-0.503-0.133c-0.101,0.26-0.212,0.52-0.33,0.795c-0.211,0.494,0.068,1.085,0.392,1.636
	c0.274,0.398,0.128,0.647-0.218,0.831l-1.374,0.668v0.917h-0.106l0.352,41.808l7.408,3.089c0.357,0.138,0.463,0.418,0.357,0.836
	c-1.106,1.932-2.48,4.613-1.737,6.342c5.48,12.759,7.608,18.974,12.865,31.172c0.089,0.204,0.123,0.464,0.079,0.617
	c-1.017,3.518-2.508,7.311-4.738,10.364c-0.229,0.54-1.117,0.566-1.324-0.051c-3.396-5.705-8.078-16.435-15.893-16.563
	c-7.816,0.127-12.491,10.858-15.893,16.563C87.073,132.918,86.19,132.893,85.957,132.353z"/>
<path fill="#FFFFFF" d="M73.554,91.264c-0.285-0.74-0.637-1.433-1.067-2.075c-0.424-0.642-0.926-1.152-1.497-1.529
	c0.162-0.209,0.285-0.495,0.369-0.861c0.089-0.363,0.156-0.862,0.195-1.495c0.045-0.631,0.078-1.447,0.106-2.457
	c0.022-1.004,0.056-14.401,0.101-15.9c-0.056-0.036-0.19-0.159-0.409-0.357c-0.212-0.199-0.475-0.449-0.782-0.75
	s-0.626-0.622-0.955-0.969c-0.677,0.515-1.33,1.009-1.966,1.489c-0.632,0.479-1.213,0.933-1.749,1.356
	c0.073,1.794,0.179,15.651,0.33,17.276c0.15,1.626,0.346,3.11,0.586,4.45c-0.486-0.306-0.927-0.52-1.324-0.652
	c-0.402-0.127-0.776-0.189-1.129-0.184c-0.436,0.005-0.86,0.066-1.279,0.178c-0.419,0.113-0.86,0.225-1.33,0.332
	c-0.463,0.111-0.988,0.173-1.559,0.178c-0.106,0.005-0.206,0-0.318,0c-0.106-0.005-0.212-0.016-0.313-0.036
	c0.547-0.424,1.028-1.02,1.447-1.774c0.419-0.759,0.748-1.596,0.988-2.518c0.234-0.923,0.357-1.851,0.363-2.773
	c0-0.821-0.05-13.78-0.156-14.585c-0.101-0.805-0.257-1.56-0.47-2.269c-0.212-0.703-0.48-1.325-0.804-1.855
	c0.525-1.249,0.882-2.442,1.083-3.583c0.201-1.142,0.296-2.269,0.292-3.37c0-0.332-0.012-12.827-0.023-13.184
	c-0.017-0.362-0.039-0.734-0.067-1.116c-0.787-0.138-1.401-0.53-1.832-1.178c-0.43-0.647-0.648-1.601-0.654-2.865
	c0.52,0.142,0.984,0.255,1.386,0.341s0.771,0.147,1.117,0.183c0.347,0.042,0.693,0.057,1.04,0.057
	c0.408,0.01,0.866-0.031,1.364-0.117c0.502-0.087,1.055-0.296,1.658-0.617c0.604-0.321,1.263-0.831,1.973-1.524
	c0.173,0.184,0.48,0.403,0.911,0.658c0.436,0.25,0.966,0.509,1.58,0.774c0.62,0.265,1.285,0.51,2.006,0.739
	c0.715,0.229,1.441,0.418,2.179,0.561c0.737,0.138,1.441,0.214,2.117,0.22c0.257,0,0.508-0.01,0.76-0.036
	c0.251-0.021,0.514-0.056,0.783-0.112c-0.14,0.382-0.37,0.77-0.693,1.162c-0.318,0.393-0.704,0.765-1.146,1.111
	c-0.446,0.352-0.916,0.647-1.418,0.897c-0.057,0.326-0.084,0.693-0.084,1.091c0,0.536,0.028,13.245,0.079,13.841
	c0.056,0.597,0.123,1.162,0.218,1.708c0.089,0.541,0.195,1,0.307,1.372c-0.19,0.082-0.519,0.27-0.983,0.576
	c-0.464,0.306-1.017,0.698-1.67,1.172c0.447,0.525,0.927,1.056,1.436,1.601s1.034,1.029,1.564,1.463
	c-0.089,0.285-0.156,0.749-0.207,1.396c-0.05,0.648-0.079,1.397-0.079,2.244c-0.006,0.841,0.034,13.84,0.107,14.702
	c0.072,0.856,0.195,1.646,0.369,2.355c0.168,0.708,0.402,1.259,0.692,1.652c-0.536,0.479-0.989,1.034-1.357,1.656
	c-0.368,0.632-0.676,1.29-0.927,1.983c-0.251,0.698-0.469,1.387-0.654,2.075C74.035,92.706,73.828,91.997,73.554,91.264z
	 M67.654,61.665c0.643-0.479,1.241-0.923,1.788-1.335c0.553-0.408,1.005-0.745,1.363-1.01c0.357-0.265,0.559-0.418,0.609-0.459
	l-0.14-16.629c-1.011-0.174-1.966-0.347-2.872-0.51c-0.899-0.168-1.759-0.373-2.586-0.622c-0.017,0.663-0.033,1.392-0.039,2.187
	c-0.011,0.79-0.011,13.749-0.017,14.57c0,0.816,0,1.601,0,2.35v2.88C66.381,62.618,67.013,62.144,67.654,61.665z"/>
<path fill="#FFFFFF" d="M87.504,78.132c-0.648-0.194-1.325-0.409-2.018-0.653c-0.698-0.24-1.369-0.475-2.016-0.699
	c-0.649-0.229-1.218-0.423-1.721-0.586c-0.502-0.158-0.882-0.255-1.14-0.291c0.251-0.32,0.436-0.841,0.548-1.55
	c0.112-0.714,0.168-1.529,0.168-2.457c-0.005-0.876-0.051-1.774-0.129-2.687c-0.084-0.913-0.201-7.846-0.353-8.641
	c-0.139-0.795-0.307-1.453-0.497-1.978c-0.189-0.52-0.385-0.831-0.592-0.928c0.324-0.469,0.614-1.081,0.866-1.825
	c0.251-0.749,0.452-1.565,0.592-2.452c0.146-0.887,0.224-7.856,0.224-8.753c0-0.75-0.057-1.473-0.173-2.172
	c-0.112-0.703-0.296-1.33-0.548-1.881c-0.251-0.555-0.586-0.989-0.994-1.3c0.603-0.061,1.245-0.158,1.938-0.306
	c0.692-0.143,1.391-0.326,2.094-0.541c0.71-0.209,1.381-0.448,2.022-0.708c0.642-0.26,1.213-0.53,1.715-0.815
	c0.503,0.092,1.084,0.239,1.743,0.433c0.654,0.194,1.335,0.413,2.044,0.653c0.71,0.239,1.392,0.474,2.046,0.703
	c0.658,0.225,1.245,0.423,1.753,0.582c0.508,0.158,0.894,0.255,1.15,0.291c-0.173,0.367-0.313,0.806-0.418,1.305
	c-0.111,0.504-0.19,1.045-0.245,1.626c-0.052,0.576-0.079,1.167-0.079,1.769c0,0.907,0.061,7.892,0.179,8.804
	c0.117,0.917,0.291,1.774,0.519,2.574c0.229,0.8,0.514,1.484,0.844,2.049c-0.313,0.51-0.598,1.147-0.838,1.907
	c-0.246,0.765-0.437,1.596-0.576,2.493c-0.14,0.897-0.212,7.872-0.212,8.779c0,0.75,0.056,1.463,0.173,2.151
	c0.111,0.684,0.296,1.3,0.547,1.846c0.252,0.545,0.587,0.989,0.995,1.32c-0.603,0.057-1.251,0.163-1.955,0.306
	c-0.705,0.148-1.414,0.326-2.14,0.54c-0.721,0.209-1.408,0.449-2.062,0.708c-0.648,0.26-1.229,0.53-1.727,0.816
	C88.727,78.473,88.151,78.33,87.504,78.132z M90.224,73.966c0.391-0.184,0.709-0.316,0.955-0.408
	c0.246-0.092,0.413-0.173,0.514-0.239c0.017-1.295,0.039-2.646,0.062-4.053c0.022-1.412,0.039-8.9,0.056-10.328
	c0.017-1.422,0.021-2.809,0.021-4.149c0-0.923,0-7.974-0.005-8.993c-0.006-1.02-0.022-2.004-0.051-2.946
	c-0.447-0.327-0.86-0.607-1.229-0.852c-0.375-0.239-0.771-0.443-1.19-0.622c-0.413-0.173-0.916-0.327-1.498-0.459
	c-0.798,0.5-1.446,0.852-1.933,1.065c-0.491,0.214-0.804,0.372-0.949,0.469c-0.023,0.607-0.04,1.336-0.056,2.193
	c-0.017,0.856-0.028,7.861-0.034,8.875c-0.011,1.009-0.017,2.054-0.021,3.135c0,1.076-0.006,2.141-0.006,3.196
	c0,0.714,0.006,1.479,0.011,2.294c0,0.816,0.006,7.698,0.012,8.494c0.005,0.795,0.005,1.519,0.005,2.171
	c0.447,0.327,0.861,0.607,1.24,0.846c0.381,0.24,0.777,0.449,1.202,0.623c0.419,0.178,0.922,0.331,1.503,0.458
	C89.369,74.404,89.833,74.145,90.224,73.966z"/>
<path fill="#FFFFFF" d="M116.162,77.483c-1.056-0.264-2.073-0.474-3.057-0.606c-0.988-0.138-1.904-0.204-2.748-0.204
	c-0.269-0.005-0.547,0.026-0.826,0.087c-0.285,0.056-0.57,0.148-0.854,0.275l-0.029-0.112c0.291-0.239,0.542-0.657,0.766-1.254
	s0.407-1.291,0.564-2.08c0.151-0.791,0.273-1.596,0.352-2.427c0.078-0.831,0.117-1.596,0.117-2.304c0-0.734-0.04-7.525-0.117-8.218
	c-0.084-0.693-0.201-1.321-0.352-1.887c-0.151-0.565-0.341-1.019-0.559-1.366c0.313-0.402,0.563-0.922,0.765-1.555
	s0.352-1.331,0.464-2.085c0.105-0.76,0.184-7.596,0.223-8.366c0.04-0.77,0.063-1.494,0.063-2.171
	c-0.006-0.551-0.018-1.035-0.034-1.448c-0.022-0.418-0.039-0.734-0.056-0.958c-0.279-0.147-0.581-0.387-0.894-0.708
	c-0.313-0.316-0.604-0.693-0.878-1.117c-0.268-0.428-0.474-0.871-0.625-1.34c1.212,0.163,2.369,0.28,3.469,0.341
	c1.095,0.066,2.128,0.097,3.101,0.097c1.381-0.005,2.587-0.051,3.609-0.133c1.022-0.082,1.893-0.158,2.62-0.234
	c0.726-0.076,1.329-0.112,1.82-0.102c0.146,0,0.274,0.005,0.396,0.021c0.124,0.016,0.229,0.031,0.319,0.051
	c-0.089,0.24-0.179,0.637-0.279,1.203c-0.095,0.561-0.19,1.213-0.291,1.953c-0.095,0.739-0.185,1.494-0.268,2.258
	c-0.089,0.77-0.162,1.473-0.224,2.121c-0.061,0.647-0.112,1.157-0.139,1.535l-0.202,0.107c-0.441-0.418-0.798-0.867-1.072-1.346
	s-0.492-1.009-0.648-1.591c-0.163-0.581-0.291-1.238-0.391-1.978c-0.268-0.25-0.598-0.418-1-0.5
	c-0.402-0.086-0.906-0.127-1.514-0.122c-0.508,0.005-0.983,0.015-1.425,0.041c-0.447,0.021-0.81,0.031-1.083,0.036
	c-0.134,0.933-0.246,2.054-0.33,3.349c-0.083,1.3-0.146,8.763-0.185,10.252c-0.039,1.489-0.061,2.982-0.061,4.491
	c0,1.545,0.017,9.075,0.05,10.441c0.027,1.366,0.078,2.559,0.151,3.574l4.827,0.622c0.184-1.004,0.458-1.926,0.82-2.778
	c0.369-0.847,0.788-1.647,1.268-2.401c0.475-0.754,0.978-1.494,1.509-2.218l0.167,0.071c-0.056,0.566-0.088,1.122-0.111,1.662
	c-0.018,0.545-0.028,1.071-0.028,1.581c0,0.846,0.022,1.636,0.067,2.376c0.045,0.739,0.106,1.396,0.179,1.967
	c0.073,0.572,0.15,1.031,0.24,1.376c-0.407,0.051-0.827,0.159-1.262,0.312c-0.441,0.158-0.922,0.424-1.441,0.8
	c-0.525,0.373-1.118,0.913-1.781,1.621C118.273,78.09,117.218,77.759,116.162,77.483z"/>
<path fill="#FFFFFF" d="M139.084,89.643c-0.56-0.775-1.269-1.438-2.13-1.983c0.162-0.209,0.286-0.495,0.374-0.861
	c0.085-0.363,0.152-0.862,0.196-1.495c0.039-0.631,0.073-1.447,0.101-2.457c0.028-1.004,0.062-14.401,0.101-15.895
	c-0.056-0.046-0.185-0.173-0.397-0.393c-0.206-0.22-0.462-0.495-0.771-0.821c-0.301-0.327-0.614-0.678-0.943-1.045l-3.743,2.988
	c0.073,1.713,0.179,15.523,0.318,17.134c0.146,1.606,0.341,3.15,0.598,4.628c-0.48-0.306-0.922-0.52-1.324-0.652
	c-0.402-0.127-0.776-0.189-1.134-0.184c-0.43,0.005-0.854,0.066-1.273,0.178c-0.419,0.113-0.866,0.225-1.33,0.332
	c-0.47,0.111-0.988,0.173-1.564,0.178c-0.101,0.005-0.207,0-0.313,0c-0.112-0.005-0.212-0.016-0.313-0.036
	c0.542-0.424,1.022-1.015,1.425-1.774c0.408-0.754,0.72-1.596,0.945-2.518c0.223-0.923,0.34-13.999,0.34-14.922
	c0-0.82-0.05-1.631-0.15-2.437c-0.106-0.805-0.263-1.56-0.475-2.269c-0.212-0.703-0.475-1.325-0.799-1.85
	c0.347-0.836,0.625-1.622,0.833-2.366c0.201-0.739,0.352-1.463,0.436-2.172c0.089-0.708,0.128-13.581,0.128-14.314
	c0-0.239-0.006-0.515-0.011-0.826c-0.006-0.315-0.012-0.637-0.028-0.958c-0.011-0.321-0.027-0.617-0.044-0.877
	c-0.458-0.158-0.844-0.397-1.151-0.708c-0.313-0.311-0.564-0.75-0.754-1.315c-0.189-0.566-0.323-1.31-0.408-2.238
	c0.313,0.117,0.604,0.229,0.861,0.326c0.262,0.097,0.525,0.184,0.793,0.255c0.263,0.071,0.559,0.122,0.888,0.163
	c0.33,0.036,0.715,0.056,1.167,0.056c0.38,0.005,0.693,0,0.938-0.005c0.251-0.005,0.486-0.021,0.71-0.041
	c0.223-0.025,0.479-0.066,0.776-0.123c0.296-0.056,0.677-0.132,1.145-0.229c-0.251,0.56-0.463,1.116-0.631,1.682
	c-0.162,0.566-0.296,1.188-0.391,1.871c-0.101,0.683-0.174,1.478-0.224,2.385c-0.05,0.908-0.089,14.137-0.112,15.381
	c-0.027,1.249-0.05,2.722-0.066,4.415c0.653-0.459,1.296-0.984,1.927-1.57c0.632-0.586,1.201-1.162,1.721-1.723
	c0.521-0.561,0.944-1.03,1.269-1.413c0.329-0.382,0.514-0.601,0.564-0.647c0.005-0.392,0.038-0.913,0.084-1.55
	c0.05-0.637,0.083-13.483,0.088-14.244c0-0.494-0.027-1.02-0.083-1.58s-0.162-1.091-0.313-1.596
	c-0.146-0.51-0.357-0.933-0.632-1.269c0.313,0.194,0.653,0.336,1.022,0.433c0.369,0.092,0.704,0.153,1.005,0.184
	c0.302,0.031,0.51,0.041,0.626,0.041c0.274-0.005,0.537-0.077,0.788-0.209c0.257-0.138,0.515-0.291,0.788-0.464
	c0.268-0.179,0.564-0.331,0.894-0.464c0.324-0.132,0.704-0.204,1.128-0.209h0.313c-0.391,0.521-0.698,1.126-0.933,1.83
	c-0.234,0.709-0.408,1.443-0.515,2.212c-0.1,0.765-0.155,1.509-0.15,2.223c0,0.79,0.051,13.688,0.156,14.401
	c0.101,0.708,0.24,1.346,0.413,1.896c-0.134,0.057-0.357,0.189-0.682,0.398c-0.323,0.208-0.697,0.463-1.122,0.764
	c-0.43,0.301-0.866,0.617-1.308,0.953c0.302,0.377,0.653,0.745,1.056,1.102c0.396,0.357,0.811,0.698,1.229,1.03
	c0.419,0.326,0.81,0.637,1.167,0.928c-0.083,0.285-0.156,0.749-0.207,1.396c-0.05,0.648-0.077,1.397-0.077,2.249
	c0,0.836,0.033,13.835,0.105,14.697c0.073,0.861,0.195,1.646,0.369,2.355c0.168,0.708,0.401,1.259,0.692,1.652
	c-0.536,0.463-0.978,0.927-1.335,1.376c-0.353,0.454-0.647,0.938-0.882,1.458c-0.241,0.515-0.448,1.111-0.638,1.785
	C140.016,91.294,139.642,90.417,139.084,89.643z"/>
<rect id="_x3C_Slice_x3E__9_" fill="none" width="201" height="203"/>
</svg>
