<?xml version="1.0" encoding="utf-8"?>
<!-- Generator: Adobe Illustrator 15.0.0, SVG Export Plug-In  -->
<!DOCTYPE svg PUBLIC "-//W3C//DTD SVG 1.1//EN" "http://www.w3.org/Graphics/SVG/1.1/DTD/svg11.dtd" [
	<!ENTITY ns_flows "http://ns.adobe.com/Flows/1.0/">
]>
<svg version="1.1"
	 xmlns="http://www.w3.org/2000/svg" xmlns:xlink="http://www.w3.org/1999/xlink" xmlns:a="http://ns.adobe.com/AdobeSVGViewerExtensions/3.0/"
	 x="0px" y="0px" width="201px" height="203px" viewBox="0.012 0 201 203" enable-background="new 0.012 0 201 203"
	 xml:space="preserve">
<defs>
</defs>
<rect y="0.988" display="none" fill="#231F20" width="200.5" height="200.5"/>
<polygon fill="#FFFFFF" points="153.264,107.666 153.264,84.898 127.989,84.898 127.924,103.969 118.818,103.969 118.818,92.587 
	107.731,92.587 107.731,60.506 85.26,60.506 85.26,84.012 72.546,84.012 72.546,51.193 46.084,51.193 46.084,28.13 22.282,28.13 
	22.282,61.542 24.795,61.542 24.795,29.609 42.832,29.609 42.832,64.499 49.779,64.499 49.779,52.819 68.999,52.819 68.999,85.343 
	80.974,85.343 80.974,96.578 88.956,96.578 88.956,61.985 104.035,61.985 104.035,94.213 115.418,94.213 115.418,105.744 
	127.984,105.744 127.984,117.719 131.781,117.719 131.721,86.377 150.012,86.377 150.012,117.719 156.424,117.719 156.514,109.44 
	176.179,109.44 176.179,117.719 179.097,117.719 179.241,107.666 "/>
<rect id="_x3C_Slice_x3E__9_" x="0.012" fill="none" width="201" height="203"/>
</svg>
