<?xml version="1.0" encoding="utf-8"?>
<!-- Generator: Adobe Illustrator 15.0.0, SVG Export Plug-In  -->
<!DOCTYPE svg PUBLIC "-//W3C//DTD SVG 1.1//EN" "http://www.w3.org/Graphics/SVG/1.1/DTD/svg11.dtd" [
	<!ENTITY ns_flows "http://ns.adobe.com/Flows/1.0/">
]>
<svg version="1.1"
	 xmlns="http://www.w3.org/2000/svg" xmlns:xlink="http://www.w3.org/1999/xlink" xmlns:a="http://ns.adobe.com/AdobeSVGViewerExtensions/3.0/"
	 x="0px" y="0px" width="201px" height="203px" viewBox="0.012 -0.333 201 203" enable-background="new 0.012 -0.333 201 203"
	 xml:space="preserve">
<defs>
</defs>
<rect y="2.167" display="none" fill="#231F20" width="200.5" height="200.5"/>
<path fill="#FFFFFF" d="M57.711,115.557h-0.001c-6.232,0-11.284-5.052-11.284-11.284v-5.211c0-6.232,5.052-11.284,11.284-11.284
	h0.001V115.557z"/>
<path fill="#FFFFFF" d="M72.321,121.197H68.85c-4.794,0-8.68-3.886-8.68-8.68v-21.7c0-4.794,3.886-8.68,8.68-8.68h3.472V121.197z"/>
<path fill="#FFFFFF" d="M143.546,115.557L143.546,115.557c6.233,0,11.285-5.052,11.285-11.284v-5.211
	c0-6.232-5.052-11.284-11.284-11.284h-0.001V115.557z"/>
<path fill="#FFFFFF" d="M128.936,121.197h3.472c4.794,0,8.68-3.886,8.68-8.68v-21.7c0-4.794-3.886-8.68-8.68-8.68h-3.472V121.197z"
	/>
<path fill="#FFFFFF" d="M142.245,84.308c-1.199,0-2.17-0.972-2.17-2.17v-7.485c0-21.75-17.695-39.446-39.447-39.446
	c-21.75,0-39.446,17.696-39.446,39.446v7.485c0,1.199-0.972,2.17-2.17,2.17s-2.17-0.972-2.17-2.17v-7.485
	c0-24.144,19.643-43.786,43.786-43.786c24.145,0,43.787,19.643,43.787,43.786v7.485C144.415,83.336,143.443,84.308,142.245,84.308z"
	/>
<polygon fill="#FFFFFF" points="73.721,101.667 76.679,97.171 76.784,97.013 76.849,97.194 80.159,106.409 79.719,106.422 
	82.201,97.128 82.478,96.093 82.879,97.095 84.652,101.522 83.91,101.525 85.892,96.199 86.365,94.927 86.735,96.24 88.969,104.18 
	87.98,104.193 89.239,98.83 89.535,97.568 90.247,98.662 93.616,103.843 92.51,104.063 94.769,91.177 95.521,86.886 96.078,91.212 
	97.195,99.888 98.292,108.566 96.904,108.489 98.773,100.674 99.326,98.366 100.145,100.595 102.75,107.683 101.371,107.788 
	103.41,97.809 103.938,95.223 104.769,97.726 106.786,103.805 105.496,103.731 109.431,95.354 110.29,93.526 110.682,95.502 
	112.665,105.493 111.455,105.466 113.233,98.532 113.75,96.513 114.345,98.502 118.16,111.262 117.221,111.347 118.396,102.026 
	119.594,92.709 119.815,90.99 120.14,92.685 122.169,103.274 121.931,103.224 124.447,99.792 124.5,99.719 124.55,99.793 
	126.523,102.723 124.446,99.866 124.55,99.866 122.147,103.378 121.976,103.63 121.909,103.328 119.598,92.796 120.144,92.773 
	119.172,102.117 118.178,111.458 117.934,113.75 117.239,111.543 113.241,98.841 114.354,98.813 112.659,105.767 112.008,108.438 
	111.449,105.739 109.381,95.766 110.633,95.914 106.756,104.318 106.023,105.908 105.466,104.245 103.433,98.171 104.792,98.089 
	102.78,108.074 102.277,110.565 101.4,108.178 98.798,101.089 100.168,101.01 98.277,108.819 97.365,112.587 96.89,108.742 
	95.816,100.06 94.763,91.376 96.073,91.411 93.702,104.276 93.419,105.808 92.595,104.495 89.31,99.261 90.318,99.093 
	88.973,104.435 88.488,106.359 87.984,104.448 85.879,96.474 86.722,96.516 84.653,101.809 84.277,102.772 83.911,101.812 
	82.212,97.355 82.889,97.322 80.163,106.546 79.953,107.256 79.724,106.559 76.668,97.256 76.838,97.279 "/>
<rect id="_x3C_Slice_x3E__9_" x="0.012" fill="none" width="201" height="203"/>
</svg>
