<?xml version="1.0" encoding="utf-8"?>
<!-- Generator: Adobe Illustrator 15.0.0, SVG Export Plug-In  -->
<!DOCTYPE svg PUBLIC "-//W3C//DTD SVG 1.1//EN" "http://www.w3.org/Graphics/SVG/1.1/DTD/svg11.dtd" [
	<!ENTITY ns_flows "http://ns.adobe.com/Flows/1.0/">
]>
<svg version="1.1"
	 xmlns="http://www.w3.org/2000/svg" xmlns:xlink="http://www.w3.org/1999/xlink" xmlns:a="http://ns.adobe.com/AdobeSVGViewerExtensions/3.0/"
	 x="0px" y="0px" width="201px" height="202px" viewBox="0 0 201 202" enable-background="new 0 0 201 202" xml:space="preserve">
<defs>
</defs>
<rect x="0.5" y="0.477" display="none" fill="#231F20" width="200.5" height="200.5"/>
<path fill="#FFFFFF" d="M46.386,78.086c-3.059,1-5.077,3.288-4.55,5.257l3.957,14.769c0.528,1.97,3.421,2.941,6.569,2.279
	L46.386,78.086z"/>
<path fill="#FFFFFF" d="M158.557,78.086c3.058,1,5.076,3.288,4.549,5.257l-3.957,14.769c-0.528,1.97-3.421,2.941-6.569,2.279
	L158.557,78.086z"/>
<path fill="#FFFFFF" d="M54.246,69.133c0.718-0.193,1.45-0.073,2.048,0.271l0.003,0.002c0.599,0.346,1.066,0.92,1.259,1.639
	l8.004,29.874c0.193,0.719,0.074,1.45-0.271,2.05l-0.002,0.002c-0.345,0.598-0.919,1.066-1.638,1.259l-6.091,1.632
	c-0.719,0.192-1.45,0.074-2.048-0.271l-0.002-0.002c-0.599-0.345-1.067-0.919-1.26-1.638l-8.005-29.874
	c-0.192-0.719-0.074-1.451,0.271-2.049l0.001-0.003c0.346-0.599,0.919-1.066,1.638-1.259C50.23,70.209,52.2,69.682,54.246,69.133z"
	/>
<path fill="#FFFFFF" d="M150.696,69.133c-0.718-0.193-1.45-0.073-2.048,0.271l-0.003,0.002c-0.598,0.346-1.066,0.92-1.259,1.639
	l-8.005,29.874c-0.192,0.719-0.074,1.45,0.271,2.05l0.001,0.002c0.345,0.598,0.919,1.066,1.637,1.259l6.092,1.632
	c0.719,0.192,1.45,0.074,2.048-0.271l0.002-0.002c0.599-0.345,1.067-0.919,1.26-1.638l8.005-29.874
	c0.192-0.719,0.075-1.451-0.271-2.049l-0.001-0.003c-0.346-0.599-0.919-1.066-1.638-1.259
	C154.712,70.209,152.744,69.682,150.696,69.133z"/>
<path fill="#FFFFFF" d="M49.406,71.111c4.585-24.939,28.861-44.165,53.445-44.165c25.478,0,47.677,18.796,52.341,44.165h-2.438
	c-4.634-24.016-25.736-41.729-49.903-41.729c-23.266,0-46.456,18.146-51.005,41.729H49.406z"/>
<path fill-rule="evenodd" clip-rule="evenodd" fill="#FFFFFF" d="M119.475,79.434v0.033c-0.037,3.677-0.439,7.344-1.2,10.934
	c3.19,0.676,6.313,1.569,9.327,2.688c1.74-4.382,2.635-9.017,2.682-13.655H119.475z"/>
<path fill-rule="evenodd" clip-rule="evenodd" fill="#FFFFFF" d="M118.104,66.697c0.82,3.582,1.27,7.234,1.357,10.888h10.796
	c-0.177-4.596-1.185-9.167-3.026-13.476C124.279,65.185,121.223,66.045,118.104,66.697z"/>
<path fill-rule="evenodd" clip-rule="evenodd" fill="#FFFFFF" d="M101.271,77.585v-9.337c-4.443-0.08-8.875-0.533-13.194-1.342
	C87.259,70.417,86.809,74,86.72,77.585H101.271z"/>
<path fill-rule="evenodd" clip-rule="evenodd" fill="#FFFFFF" d="M101.271,88.814v-9.381H86.706v0.021
	c0.037,3.611,0.438,7.213,1.196,10.735C92.275,89.359,96.769,88.895,101.271,88.814z"/>
<path fill-rule="evenodd" clip-rule="evenodd" fill="#FFFFFF" d="M103.12,79.434v9.369c4.487,0.023,8.973,0.43,13.35,1.24
	c0.738-3.477,1.13-7.028,1.166-10.59v-0.02H103.12z"/>
<path fill-rule="evenodd" clip-rule="evenodd" fill="#FFFFFF" d="M103.12,68.261v9.324h14.5c-0.087-3.535-0.527-7.068-1.324-10.534
	C111.974,67.84,107.548,68.236,103.12,68.261z"/>
<path fill-rule="evenodd" clip-rule="evenodd" fill="#FFFFFF" d="M74.057,79.434c0.048,4.674,0.954,9.342,2.72,13.754
	c3.005-1.069,6.126-1.949,9.321-2.635c-0.781-3.638-1.195-7.355-1.232-11.084v-0.035H74.057z"/>
<path fill-rule="evenodd" clip-rule="evenodd" fill="#FFFFFF" d="M77.152,64.008c-1.869,4.338-2.891,8.945-3.069,13.577h10.796
	c0.088-3.705,0.55-7.409,1.392-11.04C83.148,65.884,80.095,65.036,77.152,64.008z"/>
<path fill-rule="evenodd" clip-rule="evenodd" fill="#FFFFFF" d="M109.44,50.826c-2.043,0.58-4.174,0.9-6.321,0.959v14.627
	c4.28-0.023,8.556-0.402,12.729-1.155C114.495,60.205,112.367,55.324,109.44,50.826z"/>
<path fill-rule="evenodd" clip-rule="evenodd" fill="#FFFFFF" d="M114.947,48.477c-1.171,0.694-2.41,1.281-3.695,1.758
	c2.921,4.586,5.051,9.545,6.41,14.67c3.009-0.625,5.955-1.449,8.802-2.479c-0.717-1.473-1.534-2.91-2.452-4.302
	C121.656,54.553,118.635,51.281,114.947,48.477z"/>
<path fill-rule="evenodd" clip-rule="evenodd" fill="#FFFFFF" d="M110.205,48.656c1.072-0.375,2.109-0.83,3.1-1.365
	c-2.268-1.559-4.762-2.947-7.484-4.134C107.427,44.909,108.887,46.746,110.205,48.656z"/>
<path fill-rule="evenodd" clip-rule="evenodd" fill="#FFFFFF" d="M103.12,49.945c1.772-0.053,3.531-0.297,5.227-0.73
	c-1.187-1.674-2.488-3.291-3.907-4.837c-0.429-0.468-0.87-0.929-1.32-1.384V49.945z"/>
<path fill-rule="evenodd" clip-rule="evenodd" fill="#FFFFFF" d="M93.159,50.123c-1.259-0.477-2.479-1.056-3.644-1.738
	c-3.743,2.824-6.804,6.129-9.186,9.739c-0.896,1.359-1.698,2.763-2.402,4.2c2.838,0.982,5.782,1.795,8.792,2.43
	C88.091,59.641,90.229,54.697,93.159,50.123z"/>
<path fill-rule="evenodd" clip-rule="evenodd" fill="#FFFFFF" d="M101.271,51.772c-2.131-0.09-4.258-0.437-6.31-1.042
	c-2.931,4.482-5.068,9.346-6.432,14.383c4.168,0.773,8.449,1.207,12.742,1.287V51.772z"/>
<path fill-rule="evenodd" clip-rule="evenodd" fill="#FFFFFF" d="M96.057,49.127c1.702,0.455,3.457,0.724,5.215,0.803v-6.986
	c-0.468,0.471-0.925,0.949-1.371,1.435C98.507,45.897,97.226,47.483,96.057,49.127z"/>
<path fill-rule="evenodd" clip-rule="evenodd" fill="#FFFFFF" d="M91.166,47.199c0.979,0.525,1.997,0.975,3.042,1.35
	c1.298-1.871,2.736-3.673,4.312-5.393C95.849,44.32,93.398,45.68,91.166,47.199z"/>
<path fill-rule="evenodd" clip-rule="evenodd" fill="#FFFFFF" d="M108.93,108.004c-1.875-0.533-3.834-0.828-5.81-0.887v7.998
	c0.409-0.414,0.812-0.834,1.204-1.26C106.018,112.015,107.553,110.057,108.93,108.004z"/>
<path fill-rule="evenodd" clip-rule="evenodd" fill="#FFFFFF" d="M114.129,110.242c-1.071-0.646-2.206-1.192-3.385-1.64
	c-1.464,2.233-3.108,4.361-4.932,6.356C108.871,113.627,111.644,112.039,114.129,110.242z"/>
<path fill-rule="evenodd" clip-rule="evenodd" fill="#FFFFFF" d="M111.744,107.017c1.385,0.55,2.711,1.228,3.953,2.034
	c3.338-2.664,6.104-5.723,8.295-9.041c1.109-1.68,2.072-3.426,2.888-5.223c-2.913-1.076-5.933-1.937-9.018-2.588
	C116.576,97.4,114.529,102.412,111.744,107.017z"/>
<path fill-rule="evenodd" clip-rule="evenodd" fill="#FFFFFF" d="M103.12,105.276c2.332,0.063,4.646,0.437,6.847,1.115
	c2.776-4.51,4.813-9.433,6.087-14.55c-4.238-0.777-8.583-1.168-12.934-1.191V105.276z"/>
<path fill-rule="evenodd" clip-rule="evenodd" fill="#FFFFFF" d="M93.668,108.715c-1.152,0.445-2.269,0.984-3.333,1.617
	c2.453,1.76,5.184,3.318,8.192,4.627C96.735,112.997,95.114,110.906,93.668,108.715z"/>
<path fill-rule="evenodd" clip-rule="evenodd" fill="#FFFFFF" d="M101.271,107.132c-1.959,0.089-3.913,0.411-5.797,0.968
	c1.36,2.019,2.875,3.945,4.543,5.756c0.409,0.444,0.827,0.881,1.254,1.312V107.132z"/>
<path fill-rule="evenodd" clip-rule="evenodd" fill="#FFFFFF" d="M94.437,106.493c2.213-0.706,4.522-1.105,6.835-1.203V90.662
	c-4.363,0.081-8.715,0.528-12.949,1.326C89.608,97.091,91.654,101.999,94.437,106.493z"/>
<path fill-rule="evenodd" clip-rule="evenodd" fill="#FFFFFF" d="M88.757,109.141c1.239-0.791,2.55-1.461,3.908-2.01
	c-2.793-4.591-4.851-9.589-6.149-14.779c-3.089,0.658-6.105,1.507-9.01,2.535c0.806,1.761,1.753,3.474,2.843,5.123
	C82.565,103.366,85.368,106.457,88.757,109.141z"/>
<path fill-rule="evenodd" clip-rule="evenodd" fill="#FFFFFF" d="M88.329,45.376c1.621-0.686,3.302-1.258,5.033-1.706
	c-1.377,0.777-2.687,1.61-3.93,2.492C89.057,45.913,88.689,45.65,88.329,45.376z"/>
<path fill-rule="evenodd" clip-rule="evenodd" fill="#FFFFFF" d="M71.535,59.731c3.603-5.776,8.775-10.474,14.918-13.495
	c0.458,0.383,0.932,0.746,1.417,1.089c-3.672,2.862-6.698,6.179-9.079,9.788c-0.979,1.481-1.846,3.013-2.605,4.58
	C74.597,61.094,73.044,60.439,71.535,59.731z"/>
<path fill-rule="evenodd" clip-rule="evenodd" fill="#FFFFFF" d="M66.05,77.585c0.229-5.883,1.851-11.409,4.543-16.259
	c1.567,0.74,3.177,1.424,4.828,2.05c-1.943,4.542-3.003,9.363-3.18,14.209H66.05z"/>
<path fill-rule="evenodd" clip-rule="evenodd" fill="#FFFFFF" d="M70.163,95.94c-2.588-4.944-4.075-10.556-4.139-16.507h6.192
	c0.047,4.893,0.991,9.777,2.833,14.395C73.377,94.473,71.747,95.178,70.163,95.94z"/>
<path fill-rule="evenodd" clip-rule="evenodd" fill="#FFFFFF" d="M85.723,111.462c-6.095-3.169-11.183-8.007-14.663-13.907
	c1.528-0.732,3.1-1.408,4.71-2.029c0.858,1.893,1.872,3.732,3.04,5.502c2.227,3.373,5.019,6.488,8.372,9.215
	c-0.361,0.277-0.715,0.564-1.061,0.865C85.988,111.225,85.855,111.342,85.723,111.462z"/>
<path fill-rule="evenodd" clip-rule="evenodd" fill="#FFFFFF" d="M93.206,114.354c-1.965-0.519-3.866-1.194-5.687-2.019
	c0.381-0.322,0.771-0.629,1.173-0.922C90.105,112.464,91.611,113.446,93.206,114.354z"/>
<path fill-rule="evenodd" clip-rule="evenodd" fill="#FFFFFF" d="M117.173,112.514c-2.11,0.924-4.326,1.654-6.622,2.168
	c1.853-1.021,3.587-2.141,5.202-3.346C116.245,111.705,116.719,112.098,117.173,112.514z"/>
<path fill-rule="evenodd" clip-rule="evenodd" fill="#FFFFFF" d="M133.837,97.891c-3.551,5.88-8.714,10.677-14.875,13.781
	c-0.152-0.15-0.306-0.298-0.462-0.443c-0.402-0.371-0.818-0.728-1.247-1.064c3.311-2.709,6.07-5.796,8.276-9.137
	c1.184-1.792,2.207-3.656,3.072-5.573C130.394,96.181,132.143,96.993,133.837,97.891z"/>
<path fill-rule="evenodd" clip-rule="evenodd" fill="#FFFFFF" d="M139.073,79.434c-0.066,6.092-1.623,11.825-4.323,16.855
	c-1.757-0.936-3.571-1.778-5.431-2.533c1.821-4.596,2.757-9.455,2.804-14.322H139.073z"/>
<path fill-rule="evenodd" clip-rule="evenodd" fill="#FFFFFF" d="M134.32,60.999c2.804,4.928,4.492,10.57,4.727,16.586h-6.948
	c-0.177-4.818-1.226-9.612-3.147-14.132C130.789,62.723,132.581,61.904,134.32,60.999z"/>
<path fill-rule="evenodd" clip-rule="evenodd" fill="#FFFFFF" d="M118.262,46.05c6.2,2.96,11.436,7.616,15.105,13.368
	c-1.677,0.867-3.405,1.652-5.177,2.354c-0.768-1.597-1.648-3.153-2.641-4.659c-2.357-3.574-5.35-6.861-8.974-9.705
	C117.16,46.986,117.724,46.533,118.262,46.05z"/>
<path fill-rule="evenodd" clip-rule="evenodd" fill="#FFFFFF" d="M110.411,43.355c2.065,0.453,4.064,1.08,5.982,1.867
	c-0.441,0.362-0.897,0.703-1.37,1.023C113.578,45.213,112.04,44.246,110.411,43.355z"/>
<rect id="_x3C_Slice_x3E__9_" fill="none" width="201" height="203"/>
</svg>
