<?xml version="1.0" encoding="utf-8"?>
<!-- Generator: Adobe Illustrator 15.0.0, SVG Export Plug-In  -->
<!DOCTYPE svg PUBLIC "-//W3C//DTD SVG 1.1//EN" "http://www.w3.org/Graphics/SVG/1.1/DTD/svg11.dtd" [
	<!ENTITY ns_flows "http://ns.adobe.com/Flows/1.0/">
]>
<svg version="1.1"
	 xmlns="http://www.w3.org/2000/svg" xmlns:xlink="http://www.w3.org/1999/xlink" xmlns:a="http://ns.adobe.com/AdobeSVGViewerExtensions/3.0/"
	 x="0px" y="0px" width="201px" height="203px" viewBox="0 0.012 201 203" enable-background="new 0 0.012 201 203"
	 xml:space="preserve">
<defs>
</defs>
<rect x="0.477" display="none" fill="#231F20" width="200.5" height="200.5"/>
<path fill-rule="evenodd" clip-rule="evenodd" fill="#FFFFFF" d="M141.374,51.63c-8.361-14.484-23.815-23.406-40.54-23.406
	c-25.854,0-46.814,20.958-46.814,46.813c0,25.852,20.96,46.811,46.814,46.811c16.725,0,32.178-8.921,40.54-23.405
	c-16.1-6.986-24.312,6.918-40.54,6.918c-16.749,0-30.325-13.576-30.325-30.324c0-16.749,13.577-30.325,30.325-30.325
	C117.063,44.712,125.274,58.616,141.374,51.63L141.374,51.63z M104.051,67.996h2.033v14.082h-2.033V67.996L104.051,67.996z
	 M107.387,79.95h12.754c-0.193-0.316-0.368-0.645-0.523-0.984h-12.231v-0.672h11.954c-0.142-0.389-0.26-0.79-0.352-1.201h-11.602
	v-0.826h11.457c-0.048-0.372-0.076-0.75-0.08-1.134h-11.377v-1.104h11.429c0.037-0.346,0.092-0.687,0.166-1.021h-11.595v-1.229
	h11.952c0.095-0.258,0.201-0.512,0.318-0.759h-12.27v-1.45h13.117c1.712-2.411,4.527-3.984,7.708-3.984
	c3.184,0,5.997,1.574,7.709,3.984h24.825v1.45h-23.979c0.116,0.247,0.223,0.5,0.317,0.759h23.661v1.229h-23.304
	c0.074,0.333,0.129,0.675,0.166,1.021h23.138v1.104H137.66c-0.004,0.384-0.032,0.763-0.079,1.134h23.165v0.826h-23.31
	c-0.092,0.411-0.211,0.812-0.353,1.201h23.662v0.672h-23.938c-0.156,0.34-0.331,0.668-0.524,0.984h24.463v0.551h-24.827
	c-1.711,2.412-4.525,3.984-7.707,3.984s-5.995-1.573-7.707-3.984h-13.118V79.95L107.387,79.95z"/>
<rect id="_x3C_Slice_x3E__9_" y="0.012" fill="none" width="201" height="203"/>
</svg>
