<?xml version="1.0" encoding="utf-8"?>
<!-- Generator: Adobe Illustrator 15.0.0, SVG Export Plug-In  -->
<!DOCTYPE svg PUBLIC "-//W3C//DTD SVG 1.1//EN" "http://www.w3.org/Graphics/SVG/1.1/DTD/svg11.dtd" [
	<!ENTITY ns_flows "http://ns.adobe.com/Flows/1.0/">
]>
<svg version="1.1"
	 xmlns="http://www.w3.org/2000/svg" xmlns:xlink="http://www.w3.org/1999/xlink" xmlns:a="http://ns.adobe.com/AdobeSVGViewerExtensions/3.0/"
	 x="0px" y="0px" width="201px" height="203px" viewBox="0.012 0 201 203" enable-background="new 0.012 0 201 203"
	 xml:space="preserve">
<defs>
</defs>
<rect y="1.477" display="none" fill="#231F20" width="200.5" height="200.5"/>
<path fill="#FFFFFF" d="M59,33.357v96.225h94.782V33.357H59z M92.65,46.109l9.681,15.781h-5.066c0.005,2.48,0.074,5.798,0.364,8.287
	c0.56,4.807,2.907,8.793,6.984,11.902c-0.709,0.443-1.46,0.869-2.258,1.268c-2.259,1.135-4.601,2.398-6.851,3.824
	c-4.325-4.334-6.931-9.69-7.648-15.857c-0.343-2.948-0.426-6.68-0.429-9.424H82.97L92.65,46.109z M128.1,111.789h-9.84
	c0,0,0-0.26,0-0.527v-4.68c0-3.767-3.355-7.369-10.784-11.486c0.205-0.105,0.406-0.208,0.614-0.314
	c3.23-1.621,6.035-3.539,8.401-5.729c6.312,4.193,11.608,9.768,11.608,17.53V111.789z M124.381,61.891
	c-0.006,2.744-0.087,6.476-0.429,9.424c-1.119,9.628-6.834,17.286-16.523,22.147c-9.601,4.82-13.883,8.866-13.883,13.12v4.68
	c0,0.268,0,0.527,0,0.527h-9.84v-5.207c0-10.835,10.319-17.401,19.31-21.914c6.678-3.353,10.435-8.225,11.163-14.49
	c0.29-2.489,0.36-5.807,0.363-8.287h-5.067l9.681-15.781l9.682,15.781H124.381z"/>
<path fill="#E3E3E3" d="M87.426,61.891H82.97l4.558,4.95C87.454,65.09,87.428,63.352,87.426,61.891z"/>
<path fill="#E3E3E3" d="M114.179,70.178c0.29-2.489,0.36-5.807,0.363-8.287h-4.999l2.86,3.043l-19.74-18.803h0l9.668,15.76h-5.066
	c0.005,2.48,0.074,5.798,0.364,8.287c0.56,4.807,2.907,8.793,6.984,11.902c-0.709,0.443-1.46,0.869-2.258,1.268
	c-2.259,1.135-4.601,2.398-6.851,3.824l1.057,1.083c2.125-1.328,4.326-2.518,6.456-3.587
	C109.694,81.315,113.451,76.443,114.179,70.178z"/>
<path fill="#E3E3E3" d="M153.782,80.957l-34.626-34.848l9.682,15.781h-4.456c-0.006,2.744-0.087,6.476-0.429,9.424
	c-1.119,9.628-6.834,17.286-16.523,22.147c-9.601,4.82-13.883,8.866-13.883,13.12v4.68c0,0.268,0,0.527,0,0.527h-9.84l17.74,17.793
	h52.335V80.957z M128.1,111.789h-9.84c0,0,0-0.26,0-0.527v-4.68c0-3.767-3.355-7.369-10.784-11.486
	c0.205-0.105,0.406-0.208,0.614-0.314c3.23-1.621,6.035-3.539,8.401-5.729c6.312,4.193,11.608,9.768,11.608,17.53V111.789z"/>
<rect id="_x3C_Slice_x3E__9_" x="0.012" fill="none" width="201" height="203"/>
</svg>
