<?xml version="1.0" encoding="UTF-8" standalone="no"?>
<svg width="26px" height="24px" viewBox="0 0 26 24" version="1.1" xmlns="http://www.w3.org/2000/svg" xmlns:xlink="http://www.w3.org/1999/xlink" xmlns:sketch="http://www.bohemiancoding.com/sketch/ns">
    <!-- Generator: Sketch 3.3.3 (12081) - http://www.bohemiancoding.com/sketch -->
    <title>heart301</title>
    <desc>Created with Sketch.</desc>
    <defs></defs>
    <g id="do" stroke="none" stroke-width="1" fill="none" fill-rule="evenodd" sketch:type="MSPage">
        <g id="Tablet-GenreMAIN-" sketch:type="MSArtboardGroup" transform="translate(-685.000000, -57.000000)" stroke="#FFFFFF" stroke-width="2">
            <g id="navbar-copy" sketch:type="MSLayerGroup" transform="translate(1.000000, 1.000000)">
                <path d="M706.424756,69.0731965 C705.831479,69.7155602 704.741304,70.7384345 703.14898,72.1220433 C702.322817,72.8398498 701.657911,73.4265468 701.137762,73.8942197 C700.630739,74.347976 700.00821,74.9614077 699.267176,75.7341484 C698.531767,76.4995646 697.888612,77.2591211 697.340712,78 C696.76356,77.2719391 696.09978,76.5336237 695.34412,75.7755321 C694.58096,75.010116 693.993308,74.4292786 693.558288,74.0447394 C693.121767,73.6598339 692.457987,73.0874198 691.54707,72.3007624 L690.575775,71.4624669 L689.691109,70.679838 C689.307091,70.3407111 689.011203,70.0660402 688.819194,69.8558254 C688.631685,69.6540339 688.382674,69.3896174 688.073659,69.0589136 C687.764645,68.730041 687.525759,68.4410873 687.370502,68.2078002 C687.048362,67.7273092 686.500462,67.0091365 686.300953,66.4096215 L685.978813,65.4339905 C685.742927,64.7227761 685.668299,63.9917853 685.668299,63.1820556 C685.668299,61.6442649 686.230824,60.3254785 687.355876,59.2410778 C688.495554,58.1423943 689.846366,57.5930526 691.43419,57.5930526 C692.546116,57.5930526 693.571413,57.8805414 694.514957,58.4712669 C695.457,59.0619924 696.183409,59.8402266 696.65218,60.8187874 C696.788312,61.1037126 697.018572,61.2450766 697.340712,61.2450766 C697.664352,61.2450766 697.914864,61.1136008 698.058495,60.8187874 C698.533267,59.8490161 699.211298,59.0619924 700.153342,58.4712669 C701.095385,57.8805414 702.136808,57.5930526 703.247235,57.5930526 C704.836558,57.5930526 706.18737,58.1423943 707.312422,59.226795 C708.437474,60.3111956 709,61.629982 709,63.1820556 C708.9985,63.6629127 708.953123,64.1291208 708.872494,64.582877 C708.601357,66.1063848 707.785694,67.6013269 706.424756,69.0731965 Z" id="heart301" sketch:type="MSShapeGroup"></path>
            </g>
        </g>
    </g>
</svg>