<?xml version="1.0" encoding="UTF-8" standalone="no"?>
<svg width="41px" height="42px" viewBox="0 0 41 42" version="1.1" xmlns="http://www.w3.org/2000/svg" xmlns:xlink="http://www.w3.org/1999/xlink" xmlns:sketch="http://www.bohemiancoding.com/sketch/ns">
    <!-- Generator: Sketch 3.3.3 (12081) - http://www.bohemiancoding.com/sketch -->
    <title>group copy</title>
    <desc>Created with Sketch.</desc>
    <defs></defs>
    <g id="do" stroke="none" stroke-width="1" fill="none" fill-rule="evenodd" sketch:type="MSPage">
        <g id="Tablet-GenreMAIN-" sketch:type="MSArtboardGroup" transform="translate(-134.000000, -622.000000)">
            <g id="group-copy" sketch:type="MSLayerGroup" transform="translate(135.000000, 623.500000)">
                <path d="M0.292861851,19.5 C0.292861851,30.1078095 8.85212399,38.7071381 19.4105089,38.7071381 C29.9688938,38.7071381 38.528156,30.1078095 38.528156,19.5 C38.528156,8.89219051 29.9688938,0.292861851 19.4105089,0.292861851 C8.85212399,0.292861851 0.292861851,8.89219051 0.292861851,19.5 L0.292861851,19.5 Z" id="shape" stroke="#FFFFFF" stroke-width="2" stroke-linecap="round" sketch:type="MSShapeGroup"></path>
                <g id="Imported-Layers" transform="translate(10.941176, 7.089514)" fill="#FFFFFF" sketch:type="MSShapeGroup">
                    <path d="M11.3613364,12.1415911 C11.3613364,8.61947239 9.42190943,5.41626239 6.30047595,3.78023816 C5.69910248,3.46508252 4.95521269,3.69678266 4.63956322,4.299045 C4.32411128,4.90081353 4.55571266,5.64470332 5.15787624,5.95985897 C7.46618642,7.16961814 8.89984339,9.53896442 8.89984339,12.1415911 C8.89984339,14.5177521 7.70687408,16.7086319 5.70759618,18.0019454 C5.13674076,18.3720138 4.97387907,19.1330885 5.34286105,19.7038451 C5.57861051,20.0674939 5.97386369,20.2663056 6.37701798,20.2663056 C6.60664408,20.2663056 6.8378504,20.2018128 7.0447608,20.0683828 C9.74763282,18.3195701 11.3613364,15.356554 11.3613364,12.1415911 M9.51757216,0.19105879 C8.91619869,-0.125380788 8.17191384,0.105529241 7.8553755,0.707297765 C7.53903468,1.30827618 7.76994471,2.05265979 8.37141694,2.36900061 C12.032694,4.29578579 14.3072269,8.06007358 14.3072269,12.1904792 C14.3072269,15.9891368 12.3950588,19.4836016 9.19263888,21.535817 C8.62089459,21.90312 8.45437863,22.664491 8.82128657,23.2357415 C9.05624592,23.6026494 9.45357314,23.8020537 9.85840642,23.8020537 C10.0858597,23.8020537 10.3159796,23.7405238 10.5213098,23.6078839 C14.4333484,21.1000706 16.7689174,16.8324819 16.7689174,12.1904792 C16.7689174,7.1423593 13.9903923,2.54410903 9.51757216,0.19105879 M5.96906376,12.0651478 C5.96906376,10.064981 4.86517951,8.25068794 3.08742907,7.32912186 C2.48368526,7.01534891 1.74177075,7.25139466 1.42809656,7.85563228 C1.11550877,8.45838845 1.35086318,9.20178442 1.95421192,9.51407592 C2.91281447,10.0108584 3.50766952,10.9877323 3.50766952,12.0651478 C3.50766952,13.0282935 3.02728184,13.9244772 2.22215842,14.4590863 C1.65545109,14.835278 1.50157691,15.5987231 1.87766989,16.1651341 C2.11470328,16.5221657 2.50561085,16.7160392 2.90382695,16.7160392 C3.13839124,16.7160392 3.37453576,16.6479909 3.58381649,16.5093264 C5.07742315,15.5160577 5.96906376,13.8552437 5.96906376,12.0651478" id="Fill-1"></path>
                </g>
            </g>
        </g>
    </g>
</svg>