<?xml version="1.0" encoding="utf-8"?>
<!-- Generator: Adobe Illustrator 15.0.0, SVG Export Plug-In . SVG Version: 6.00 Build 0)  -->
<!DOCTYPE svg PUBLIC "-//W3C//DTD SVG 1.1//EN" "http://www.w3.org/Graphics/SVG/1.1/DTD/svg11.dtd">
<svg version="1.1" id="Layer_1" xmlns="http://www.w3.org/2000/svg" xmlns:xlink="http://www.w3.org/1999/xlink" x="0px" y="0px"
	 width="485px" height="201px" viewBox="0 0 485 201" enable-background="new 0 0 485 201" xml:space="preserve">
<rect x="1.461" y="0.496" display="none" fill="#231F20" width="482.486" height="200.5"/>
<path fill="#FFFFFF" d="M80.358,77.091c0,5.769-2.48,10.447-7.447,14.039c-4.773,3.403-10.681,5.104-17.726,5.104H28.457v12.832
	H12.642v-26.09h44.105c2.175,0,4.005-0.542,5.496-1.633c1.49-1.084,2.234-2.528,2.234-4.322c0-1.795-0.744-3.216-2.234-4.255
	c-1.491-1.038-3.32-1.559-5.496-1.559H12.642l10.492-13.262h32.122c6.995,0,12.88,1.705,17.653,5.106
	C77.878,66.645,80.358,71.323,80.358,77.091z"/>
<path fill="#FFFFFF" d="M158.642,109.065h-23.047L120.14,96.233H98.3v12.832H82.417v-26.09h44.104c2.695,0,4.914-0.402,6.664-1.209
	c2.221-1.035,3.334-2.573,3.334-4.604c0-3.974-3.334-5.957-9.998-5.957H82.417l10.353-13.261h32.262
	c7.988,0,14.466,1.515,19.43,4.536c5.576,3.452,8.367,8.369,8.367,14.75c0,3.592-1.126,6.842-3.368,9.749
	c-2.25,2.908-5.354,5.142-9.325,6.702L158.642,109.065z"/>
<path fill="#FFFFFF" d="M185.091,109.065l9.571-13.256h21.341l-13.258-18.367l-23.046,31.625h-19.643l32.758-45.45
	c1.043-1.51,2.487-2.833,4.328-3.969c2.035-1.23,3.994-1.845,5.883-1.845c1.939,0,3.904,0.615,5.888,1.845
	c1.748,1.086,3.167,2.41,4.255,3.969l31.98,45.45L185.091,109.065L185.091,109.065z"/>
<path fill="#FFFFFF" d="M313.152,109.065h-56.157c-2.555,0-4.661-0.422-6.316-1.276c-2.034-1.036-3.054-2.549-3.054-4.532
	c0-2.17,1.278-4.326,3.831-6.451l30.705-25.596h-35.666l9.995-13.262h43.537c2.511,0,4.66,0.546,6.455,1.634
	c2.032,1.181,3.052,2.789,3.052,4.82c0,2.032-1.112,3.997-3.333,5.886l-30.707,25.597h28.153L313.152,109.065z"/>
<path fill="#FFFFFF" d="M393.696,83.046c0,7.469-2.915,13.676-8.752,18.614c-5.842,4.94-13.204,7.405-22.091,7.405h-15.388
	c-8.93,0-16.321-2.467-22.152-7.405c-5.843-4.938-8.758-11.142-8.758-18.614c0-7.473,2.896-13.522,8.683-18.153
	c5.79-4.634,13.204-6.95,22.231-6.95h15.389c9.026,0,16.427,2.316,22.193,6.95C390.812,69.525,393.696,75.575,393.696,83.046z
	 M362.854,71.207h-15.388c-4.396,0-8.011,1.167-10.848,3.51c-2.838,2.339-4.254,5.331-4.254,8.97c0,3.638,1.416,6.581,4.254,8.825
	c2.837,2.245,6.451,3.368,10.848,3.368h15.388c4.396,0,8.01-1.123,10.848-3.368c2.835-2.245,4.257-5.187,4.257-8.825
	c0-3.639-1.435-6.631-4.291-8.97C370.807,72.374,367.204,71.207,362.854,71.207z"/>
<path fill="#FFFFFF" d="M474.109,109.065h-23.058L435.6,96.233h-21.838v12.832h-15.884v-26.09h44.104
	c2.691,0,4.912-0.402,6.664-1.209c2.217-1.035,3.331-2.573,3.331-4.604c0-3.974-3.331-5.957-9.995-5.957h-44.104l10.353-13.261
	h32.26c7.994,0,14.463,1.515,19.435,4.536c5.579,3.452,8.364,8.369,8.364,14.75c0,3.592-1.124,6.842-3.368,9.749
	c-2.245,2.908-5.354,5.142-9.327,6.702L474.109,109.065z"/>
<path fill="#FFFFFF" d="M15.218,120.984c0.673-0.124,1.41-0.22,2.215-0.292c0.805-0.073,1.609-0.101,2.407-0.101
	c0.83,0,1.661,0.063,2.499,0.191c0.839,0.136,1.593,0.397,2.263,0.79c0.668,0.394,1.217,0.948,1.638,1.651
	c0.421,0.706,0.635,1.622,0.635,2.754c0,1.022-0.185,1.89-0.552,2.593c-0.366,0.704-0.85,1.279-1.46,1.731
	c-0.608,0.448-1.296,0.774-2.07,0.978c-0.773,0.196-1.576,0.3-2.406,0.3c-0.081,0-0.205,0-0.382,0c-0.174,0-0.356-0.007-0.55-0.015
	c-0.191-0.01-0.378-0.017-0.563-0.03c-0.184-0.021-0.313-0.029-0.394-0.048v5.605h-3.281v-16.111L15.218,120.984L15.218,120.984z
	 M20.104,123.334c-0.32,0-0.624,0.012-0.91,0.032c-0.287,0.025-0.516,0.052-0.693,0.083v5.277c0.063,0.014,0.157,0.031,0.287,0.047
	c0.127,0.015,0.264,0.025,0.407,0.033c0.142,0.01,0.282,0.012,0.42,0.012c0.134,0,0.234,0,0.299,0c0.43,0,0.854-0.038,1.279-0.119
	c0.419-0.077,0.8-0.221,1.136-0.427c0.336-0.209,0.603-0.502,0.8-0.875c0.199-0.37,0.298-0.858,0.298-1.464
	c0-0.513-0.095-0.938-0.286-1.267c-0.192-0.333-0.447-0.603-0.755-0.805c-0.311-0.2-0.667-0.342-1.063-0.413
	C20.925,123.37,20.517,123.334,20.104,123.334z"/>
<path fill="#FFFFFF" d="M32.905,128.961c0-2.713,0.615-4.8,1.843-6.269c1.229-1.464,2.984-2.194,5.266-2.194
	c1.196,0,2.244,0.196,3.137,0.604c0.894,0.406,1.636,0.975,2.222,1.719c0.592,0.745,1.032,1.636,1.319,2.674
	c0.287,1.04,0.432,2.194,0.432,3.466c0,2.712-0.619,4.798-1.854,6.266c-1.237,1.463-2.987,2.196-5.255,2.196
	c-1.211,0-2.265-0.198-3.157-0.605c-0.896-0.404-1.631-0.975-2.214-1.721c-0.583-0.743-1.014-1.636-1.305-2.674
	C33.05,131.386,32.905,130.232,32.905,128.961z M36.353,128.961c0,0.822,0.074,1.578,0.215,2.264
	c0.146,0.688,0.365,1.281,0.659,1.779c0.298,0.496,0.675,0.886,1.136,1.165c0.462,0.276,1.013,0.417,1.652,0.417
	c1.167,0,2.066-0.446,2.705-1.326c0.638-0.886,0.958-2.32,0.958-4.305c0-0.787-0.067-1.525-0.203-2.209
	c-0.138-0.68-0.349-1.276-0.632-1.789c-0.288-0.514-0.664-0.91-1.126-1.2c-0.461-0.287-1.028-0.429-1.701-0.429
	c-1.165,0-2.065,0.457-2.701,1.36C36.67,125.599,36.353,127.024,36.353,128.961z"/>
<path fill="#FFFFFF" d="M57.941,129.913l0.31,2.886h0.096l0.334-2.932l2.919-9.046h2.151l2.873,9.092l0.336,2.886h0.095l0.357-2.932
	l2.033-9.046h3.331l-4.621,16.397h-2.2l-2.992-9.049l-0.407-2.486h-0.12l-0.407,2.51l-2.968,9.025h-2.321l-4.595-16.396h3.568
	L57.941,129.913z"/>
<path fill="#FFFFFF" d="M79.002,120.821h9.932v2.837h-6.652v3.789h6.055v2.837h-6.055v3.982h6.776v2.833H79.002V120.821z"/>
<path fill="#FFFFFF" d="M96.281,120.984c0.365-0.063,0.76-0.122,1.185-0.175c0.423-0.052,0.845-0.098,1.269-0.128
	c0.422-0.03,0.834-0.055,1.232-0.073c0.401-0.015,0.767-0.025,1.104-0.025c0.783,0,1.55,0.073,2.309,0.212
	c0.756,0.135,1.436,0.381,2.033,0.723c0.6,0.34,1.077,0.804,1.436,1.403c0.361,0.598,0.541,1.345,0.541,2.248
	c0,1.328-0.321,2.412-0.957,3.255c-0.64,0.837-1.491,1.422-2.562,1.744l1.172,0.722l3.829,6.206h-3.781l-3.806-6.368l-1.724-0.301
	v6.669h-3.279L96.281,120.984L96.281,120.984z M101.309,123.425c-0.335,0-0.667,0.008-0.994,0.028
	c-0.325,0.017-0.579,0.044-0.754,0.091v4.72h1.386c0.91,0,1.636-0.2,2.178-0.607c0.543-0.403,0.814-1.067,0.814-2
	c0-0.692-0.223-1.245-0.673-1.638C102.822,123.625,102.169,123.425,101.309,123.425z"/>
<path fill="#FFFFFF" d="M115.473,120.821h9.934v2.837h-6.653v3.789h6.055v2.837h-6.055v3.982h6.774v2.833h-10.055V120.821
	L115.473,120.821z"/>
<path fill="#FFFFFF" d="M132.755,120.821c0.336-0.047,0.716-0.083,1.138-0.115c0.419-0.03,0.859-0.055,1.305-0.069
	c0.445-0.02,0.878-0.028,1.302-0.034c0.423-0.005,0.801-0.011,1.138-0.011c1.483,0,2.75,0.199,3.805,0.604
	c1.052,0.401,1.908,0.968,2.562,1.696c0.654,0.732,1.132,1.6,1.435,2.604c0.305,1.005,0.458,2.116,0.458,3.326
	c0,1.102-0.142,2.163-0.432,3.185c-0.288,1.022-0.764,1.932-1.437,2.721c-0.669,0.786-1.551,1.431-2.645,1.906
	c-1.092,0.483-2.444,0.724-4.056,0.724c-0.256,0-0.593-0.007-1.015-0.024c-0.422-0.019-0.864-0.032-1.319-0.056
	c-0.456-0.027-0.89-0.049-1.303-0.074c-0.415-0.021-0.728-0.052-0.935-0.079L132.755,120.821L132.755,120.821z M137.901,123.425
	c-0.351,0-0.704,0.008-1.063,0.028c-0.357,0.017-0.626,0.038-0.802,0.065v10.91c0.064,0.013,0.173,0.029,0.325,0.031
	c0.15,0.013,0.314,0.021,0.489,0.024c0.173,0.007,0.343,0.015,0.503,0.025c0.158,0.009,0.278,0.012,0.356,0.012
	c0.926,0,1.695-0.16,2.311-0.478c0.617-0.316,1.104-0.739,1.459-1.27c0.362-0.522,0.611-1.136,0.755-1.823
	c0.146-0.689,0.214-1.393,0.214-2.128c0-0.635-0.063-1.274-0.19-1.922c-0.13-0.642-0.363-1.218-0.706-1.727
	c-0.344-0.514-0.81-0.935-1.399-1.26C139.564,123.589,138.808,123.425,137.901,123.425z"/>
<path fill="#FFFFFF" d="M174.824,124.615c0,0.404-0.046,0.801-0.155,1.209c-0.103,0.402-0.274,0.773-0.511,1.102
	c-0.236,0.34-0.553,0.626-0.934,0.888c-0.384,0.256-0.849,0.446-1.386,0.571v0.139c0.479,0.079,0.93,0.209,1.361,0.396
	c0.434,0.188,0.811,0.445,1.128,0.769c0.319,0.321,0.57,0.716,0.753,1.184c0.187,0.463,0.277,1.015,0.277,1.65
	c0,0.841-0.187,1.563-0.553,2.179c-0.364,0.609-0.855,1.11-1.471,1.497c-0.612,0.39-1.314,0.677-2.092,0.863
	c-0.785,0.186-1.589,0.276-2.418,0.276c-0.271,0-0.621,0-1.042,0c-0.422,0-0.878-0.015-1.364-0.034
	c-0.488-0.023-0.977-0.057-1.482-0.106c-0.503-0.045-0.963-0.111-1.379-0.206v-16.046c0.301-0.04,0.65-0.088,1.042-0.136
	c0.386-0.044,0.81-0.083,1.255-0.115c0.444-0.029,0.904-0.058,1.374-0.072c0.473-0.018,0.939-0.021,1.4-0.021
	c0.784,0,1.545,0.057,2.286,0.173c0.744,0.117,1.404,0.321,1.989,0.616c0.581,0.295,1.05,0.707,1.399,1.231
	C174.651,123.138,174.824,123.808,174.824,124.615z M167.767,127.656c0.223,0,0.482-0.008,0.779-0.021
	c0.298-0.016,0.537-0.037,0.732-0.069c0.603-0.186,1.128-0.461,1.567-0.832c0.441-0.367,0.66-0.852,0.66-1.444
	c0-0.404-0.083-0.732-0.242-0.994c-0.161-0.261-0.372-0.465-0.634-0.621c-0.262-0.152-0.563-0.257-0.898-0.317
	c-0.332-0.064-0.684-0.097-1.052-0.097c-0.413,0-0.8,0.011-1.149,0.027c-0.353,0.015-0.623,0.037-0.813,0.069v4.3H167.767z
	 M168.848,134.655c0.397,0,0.785-0.046,1.157-0.134c0.38-0.094,0.707-0.239,0.995-0.428c0.291-0.193,0.515-0.436,0.693-0.728
	c0.177-0.292,0.261-0.638,0.261-1.04c0-0.508-0.103-0.9-0.308-1.194c-0.207-0.296-0.479-0.515-0.813-0.678
	c-0.335-0.162-0.709-0.262-1.123-0.308c-0.417-0.049-0.831-0.075-1.243-0.075h-1.749v4.447c0.08,0.026,0.207,0.053,0.382,0.067
	c0.173,0.019,0.362,0.025,0.564,0.034c0.197,0.01,0.406,0.019,0.622,0.022C168.499,134.65,168.69,134.655,168.848,134.655z"/>
<path fill="#FFFFFF" d="M186.505,131.049l-5.502-10.228h3.901l3.063,6.115l0.331,1.719h0.122l0.362-1.763l2.97-6.071h3.511
	l-5.479,10.208v6.067h-3.28v-6.044h0.001V131.049L186.505,131.049z"/>
<path fill="#FFFFFF" d="M211.636,120.821h9.936v2.837h-6.656v4.024h6.129v2.839h-6.129v6.578h-3.279V120.821L211.636,120.821z"/>
<path fill="#FFFFFF" d="M239.186,137.096h-10.602V120.82h3.28v13.442h7.322V137.096L239.186,137.096z"/>
<path fill="#FFFFFF" d="M242.914,128.961c0-2.713,0.62-4.8,1.843-6.269c1.232-1.464,2.983-2.194,5.269-2.194
	c1.2,0,2.24,0.196,3.135,0.604c0.894,0.406,1.64,0.975,2.229,1.719c0.586,0.745,1.028,1.636,1.316,2.674
	c0.292,1.04,0.433,2.194,0.433,3.466c0,2.712-0.621,4.798-1.855,6.266c-1.235,1.463-2.992,2.196-5.257,2.196
	c-1.214,0-2.263-0.198-3.157-0.605c-0.894-0.404-1.635-0.975-2.209-1.721c-0.586-0.743-1.022-1.636-1.305-2.674
	C243.067,131.386,242.914,130.232,242.914,128.961z M246.369,128.961c0,0.822,0.072,1.578,0.215,2.264
	c0.14,0.688,0.359,1.281,0.657,1.779c0.294,0.496,0.673,0.886,1.137,1.165c0.46,0.276,1.008,0.417,1.65,0.417
	c1.168,0,2.069-0.446,2.706-1.326c0.637-0.886,0.954-2.32,0.954-4.305c0-0.787-0.069-1.525-0.201-2.209
	c-0.138-0.68-0.349-1.276-0.635-1.789c-0.285-0.514-0.66-0.91-1.125-1.2c-0.461-0.287-1.027-0.429-1.699-0.429
	c-1.163,0-2.067,0.457-2.704,1.36C246.684,125.599,246.369,127.024,246.369,128.961z"/>
<path fill="#FFFFFF" d="M267.951,129.913l0.31,2.886h0.094l0.336-2.932l2.917-9.046h2.158l2.871,9.092l0.336,2.886h0.095
	l0.353-2.932l2.037-9.046h3.326l-4.615,16.397h-2.2l-2.995-9.049l-0.408-2.486h-0.119l-0.406,2.511l-2.962,9.027h-2.318
	l-4.602-16.398h3.57L267.951,129.913z"/>
<path fill="#FFFFFF" d="M289.351,120.821h3.279v16.275h-3.279V120.821z"/>
<path fill="#FFFFFF" d="M304.784,128.611l-1.312-2.558h-0.124l0.384,2.558v8.483h-3.116v-16.39h2.398l6.342,8.671l1.271,2.489h0.119
	l-0.383-2.489v-8.557h3.11v16.397h-2.394L304.784,128.611z"/>
<path fill="#FFFFFF" d="M327.042,128.611h6.247v7.253c-0.67,0.542-1.472,0.939-2.408,1.189c-0.931,0.243-1.853,0.366-2.765,0.366
	c-1.064,0-2.064-0.162-2.979-0.488c-0.913-0.326-1.707-0.83-2.377-1.523c-0.675-0.69-1.198-1.571-1.582-2.636
	c-0.384-1.069-0.576-2.343-0.576-3.816c0-1.537,0.235-2.843,0.683-3.916c0.459-1.08,1.054-1.959,1.799-2.63
	c0.737-0.676,1.574-1.166,2.5-1.465c0.926-0.3,1.867-0.451,2.824-0.451c0.958,0,1.802,0.063,2.521,0.206
	c0.73,0.136,1.309,0.286,1.738,0.442l-0.673,2.673c-0.399-0.153-0.847-0.274-1.341-0.356c-0.496-0.085-1.115-0.131-1.889-0.131
	c-0.681,0-1.316,0.097-1.887,0.301c-0.575,0.201-1.071,0.526-1.494,0.988c-0.426,0.461-0.755,1.043-0.983,1.763
	c-0.236,0.711-0.352,1.578-0.352,2.601c0,0.977,0.113,1.816,0.339,2.522c0.224,0.702,0.531,1.284,0.935,1.741
	c0.396,0.461,0.867,0.795,1.397,1.015c0.532,0.216,1.106,0.321,1.71,0.321c0.412,0,0.822-0.049,1.221-0.148
	c0.399-0.102,0.733-0.249,1.003-0.454v-3.068l-3.611-0.373V128.611L327.042,128.611z"/>
<path fill="#FFFFFF" d="M358.563,132.724c0-0.493-0.188-0.894-0.563-1.208c-0.374-0.309-0.846-0.591-1.415-0.85
	c-0.565-0.252-1.177-0.515-1.842-0.785c-0.663-0.271-1.275-0.604-1.844-1.001c-0.564-0.397-1.037-0.888-1.408-1.476
	c-0.377-0.591-0.57-1.343-0.57-2.256c0-0.789,0.138-1.475,0.407-2.063c0.272-0.571,0.66-1.059,1.165-1.445
	c0.506-0.389,1.1-0.679,1.78-0.863c0.686-0.186,1.451-0.277,2.303-0.277c0.97,0,1.888,0.083,2.748,0.242
	c0.859,0.166,1.57,0.406,2.132,0.715l-1.027,2.673c-0.354-0.219-0.88-0.411-1.581-0.594c-0.707-0.176-1.459-0.269-2.274-0.269
	c-0.765,0-1.355,0.151-1.761,0.446c-0.405,0.292-0.611,0.688-0.611,1.183c0,0.465,0.189,0.852,0.566,1.165
	c0.374,0.313,0.843,0.598,1.411,0.859c0.568,0.267,1.178,0.533,1.841,0.813c0.664,0.278,1.273,0.62,1.845,1.01
	c0.57,0.397,1.037,0.885,1.413,1.468c0.373,0.581,0.565,1.305,0.565,2.174c0,0.868-0.149,1.617-0.447,2.242
	c-0.296,0.628-0.707,1.152-1.243,1.574c-0.532,0.414-1.181,0.729-1.935,0.931c-0.76,0.197-1.594,0.3-2.505,0.3
	c-1.199,0-2.249-0.109-3.16-0.328c-0.911-0.215-1.579-0.434-2.014-0.648l1.06-2.722c0.174,0.093,0.403,0.194,0.677,0.302
	c0.278,0.108,0.598,0.208,0.948,0.299c0.353,0.094,0.725,0.173,1.111,0.236c0.387,0.061,0.792,0.089,1.207,0.089
	c0.977,0,1.723-0.161,2.241-0.476C358.305,133.859,358.563,133.379,358.563,132.724z"/>
<path fill="#FFFFFF" d="M380.702,123.657h-4.884v13.438h-3.278v-13.438h-4.906v-2.837h13.064v2.837H380.702z"/>
<path fill="#FFFFFF" d="M387.184,120.984c0.365-0.063,0.762-0.122,1.19-0.175c0.418-0.052,0.841-0.098,1.264-0.128
	c0.422-0.03,0.839-0.055,1.237-0.073c0.403-0.015,0.765-0.025,1.104-0.025c0.78,0,1.547,0.073,2.306,0.212
	c0.756,0.135,1.438,0.381,2.034,0.723c0.6,0.34,1.073,0.804,1.435,1.403c0.36,0.598,0.536,1.345,0.536,2.248
	c0,1.328-0.317,2.412-0.955,3.255c-0.633,0.837-1.489,1.422-2.561,1.744l1.17,0.722l3.826,6.206h-3.781l-3.807-6.368l-1.721-0.301
	v6.669h-3.279L387.184,120.984L387.184,120.984z M392.211,123.425c-0.333,0-0.666,0.008-0.997,0.028
	c-0.326,0.017-0.574,0.044-0.748,0.091v4.72h1.386c0.909,0,1.631-0.2,2.179-0.607c0.541-0.403,0.808-1.067,0.808-2
	c0-0.692-0.225-1.245-0.665-1.638C393.729,123.625,393.074,123.425,392.211,123.425z"/>
<path fill="#FFFFFF" d="M406.378,120.821h9.936v2.837h-6.65v3.789h6.053v2.837h-6.053v3.982h6.771v2.833h-10.057L406.378,120.821
	L406.378,120.821z"/>
<path fill="#FFFFFF" d="M431.913,133.494h-5.142l-1.271,3.603h-3.276l6.031-16.391h2.411l6.039,16.391h-3.448L431.913,133.494z
	 M427.609,130.935h3.585l-1.239-3.625l-0.506-2.559h-0.115l-0.505,2.576L427.609,130.935z"/>
<path fill="#FFFFFF" d="M455.921,128.655l0.359-3.226h-0.147l-1.025,2.605l-3.563,6.066h-1.056l-3.758-6.096l-1.058-2.576h-0.121
	l0.483,3.207v8.464h-3.113v-16.278h2.992l4.472,7.442l0.788,1.859h0.095l0.721-1.905l4.232-7.396h2.97v16.276h-3.278v-8.443H455.921
	L455.921,128.655z"/>
<path fill="#FFFFFF" d="M474.087,132.724c0-0.493-0.189-0.894-0.562-1.208c-0.377-0.306-0.846-0.591-1.415-0.85
	c-0.566-0.252-1.184-0.515-1.841-0.785c-0.673-0.271-1.28-0.604-1.846-1.001c-0.57-0.397-1.036-0.888-1.415-1.476
	c-0.37-0.591-0.563-1.343-0.563-2.256c0-0.789,0.137-1.475,0.407-2.063c0.271-0.571,0.664-1.059,1.162-1.445
	c0.507-0.389,1.1-0.679,1.783-0.863c0.688-0.186,1.454-0.277,2.304-0.277c0.97,0,1.891,0.083,2.749,0.242
	c0.855,0.166,1.569,0.406,2.129,0.715l-1.027,2.673c-0.354-0.219-0.881-0.411-1.583-0.594c-0.701-0.176-1.456-0.269-2.268-0.269
	c-0.768,0-1.354,0.151-1.765,0.446c-0.405,0.292-0.61,0.688-0.61,1.183c0,0.465,0.188,0.852,0.562,1.165
	c0.381,0.313,0.85,0.598,1.413,0.859c0.571,0.267,1.184,0.533,1.844,0.813c0.669,0.278,1.274,0.62,1.846,1.01
	c0.57,0.397,1.033,0.885,1.415,1.468c0.373,0.581,0.566,1.305,0.566,2.174c0,0.868-0.15,1.617-0.446,2.242
	c-0.299,0.628-0.708,1.152-1.246,1.574c-0.532,0.414-1.179,0.729-1.939,0.931c-0.761,0.197-1.59,0.3-2.498,0.3
	c-1.198,0-2.252-0.109-3.157-0.328c-0.911-0.215-1.587-0.434-2.019-0.648l1.054-2.722c0.178,0.093,0.406,0.194,0.683,0.302
	c0.282,0.108,0.594,0.208,0.948,0.299c0.351,0.094,0.719,0.173,1.109,0.236c0.396,0.061,0.795,0.089,1.213,0.089
	c0.977,0,1.72-0.161,2.239-0.476C473.823,133.859,474.087,133.379,474.087,132.724z"/>
<rect id="_x3C_Slice_x3E__9_" x="-77" y="-31.497" fill="none" width="630.976" height="261.497"/>
</svg>
