<?xml version="1.0" encoding="UTF-8" standalone="no"?>
<svg width="25px" height="24px" viewBox="0 0 25 24" version="1.1" xmlns="http://www.w3.org/2000/svg" xmlns:xlink="http://www.w3.org/1999/xlink" xmlns:sketch="http://www.bohemiancoding.com/sketch/ns">
    <!-- Generator: Sketch 3.3.3 (12081) - http://www.bohemiancoding.com/sketch -->
    <title>shape</title>
    <desc>Created with Sketch.</desc>
    <defs></defs>
    <g id="do" stroke="none" stroke-width="1" fill="none" fill-rule="evenodd" sketch:type="MSPage">
        <g id="Tablet---Login" sketch:type="MSArtboardGroup" transform="translate(-250.500000, -303.000000)" stroke="#FFFFFF" stroke-width="2">
            <g id="username" sketch:type="MSLayerGroup" transform="translate(135.000000, 289.000000)">
                <g transform="translate(115.000000, 0.948000)" id="group" sketch:type="MSShapeGroup">
                    <g transform="translate(0.500000, 13.200000)">
                        <path d="M12.5,13.75 C8.28125,13.75 0,15.8320312 0,20.15625 L0,23.359375 L25,23.359375 L25,20.15625 C25,15.8320312 16.71875,13.75 12.5,13.75 L12.5,13.75 Z M12.5,11.25 C15.59375,11.25 18.125,8.71875 18.125,5.625 C18.125,2.53125 15.59375,0 12.5,0 C9.40625,0 6.875,2.53125 6.875,5.625 C6.875,8.71875 9.40625,11.25 12.5,11.25 L12.5,11.25 Z" id="shape"></path>
                    </g>
                </g>
            </g>
        </g>
    </g>
</svg>